<mxfile host="app.diagrams.net" modified="2024-02-11T11:24:19.282Z" agent="Mozilla/5.0 (Windows NT 10.0; Win64; x64) AppleWebKit/537.36 (KHTML, like Gecko) Chrome/121.0.0.0 Safari/537.36" etag="6W7a5KApyURfGQJQA173" version="23.1.2" type="device">
  <diagram name="페이지-1" id="yqJjdgmA4nHY2cZOTzCT">
    <mxGraphModel dx="3806" dy="1606" grid="1" gridSize="10" guides="1" tooltips="1" connect="1" arrows="1" fold="1" page="0" pageScale="1" pageWidth="827" pageHeight="1169" math="0" shadow="0">
      <root>
        <mxCell id="0" />
        <mxCell id="1" parent="0" />
        <mxCell id="NPe-8h-_CcpF1HoH4NOW-5" value="" style="edgeStyle=orthogonalEdgeStyle;rounded=0;orthogonalLoop=1;jettySize=auto;html=1;" parent="1" edge="1">
          <mxGeometry relative="1" as="geometry">
            <mxPoint x="-741.73" y="-21.5" as="sourcePoint" />
            <mxPoint x="-741.6711764705883" y="39.5" as="targetPoint" />
          </mxGeometry>
        </mxCell>
        <mxCell id="NPe-8h-_CcpF1HoH4NOW-21" value="" style="edgeStyle=orthogonalEdgeStyle;rounded=0;orthogonalLoop=1;jettySize=auto;html=1;exitX=0.5;exitY=1;exitDx=0;exitDy=0;entryX=0.5;entryY=0;entryDx=0;entryDy=0;" parent="1" edge="1" target="NPe-8h-_CcpF1HoH4NOW-156" source="NPe-8h-_CcpF1HoH4NOW-140">
          <mxGeometry relative="1" as="geometry">
            <mxPoint x="-741.73" y="99.5" as="sourcePoint" />
            <mxPoint x="-741.7644827586205" y="158.51724137931024" as="targetPoint" />
          </mxGeometry>
        </mxCell>
        <mxCell id="NPe-8h-_CcpF1HoH4NOW-48" style="edgeStyle=orthogonalEdgeStyle;rounded=0;orthogonalLoop=1;jettySize=auto;html=1;exitX=0;exitY=0.5;exitDx=0;exitDy=0;exitPerimeter=0;entryX=0.5;entryY=0;entryDx=0;entryDy=0;entryPerimeter=0;" parent="1" source="NPe-8h-_CcpF1HoH4NOW-103" target="NPe-8h-_CcpF1HoH4NOW-113" edge="1">
          <mxGeometry relative="1" as="geometry">
            <mxPoint x="-99.06" y="-41" as="sourcePoint" />
            <mxPoint x="-170.06" y="20" as="targetPoint" />
            <Array as="points">
              <mxPoint x="-215" y="-180" />
            </Array>
          </mxGeometry>
        </mxCell>
        <mxCell id="NPe-8h-_CcpF1HoH4NOW-17" value="상품번호&lt;br&gt;썸네일 이미지 &lt;br&gt;상품명&lt;br&gt;제조사&lt;br&gt;판매가&lt;br&gt;원가&lt;br&gt;할인율&lt;br&gt;마진율&lt;br&gt;재고수량&lt;br&gt;판매 유뮤&lt;br&gt;추천 유무" style="text;html=1;strokeColor=none;fillColor=none;align=left;verticalAlign=middle;whiteSpace=wrap;rounded=0;" parent="1" vertex="1">
          <mxGeometry x="-130" y="-135.13" width="110" height="110.5" as="geometry" />
        </mxCell>
        <mxCell id="NPe-8h-_CcpF1HoH4NOW-35" value="" style="edgeStyle=orthogonalEdgeStyle;rounded=0;orthogonalLoop=1;jettySize=auto;html=1;exitX=0.5;exitY=1;exitDx=0;exitDy=0;entryX=0.5;entryY=0;entryDx=0;entryDy=0;entryPerimeter=0;" parent="1" source="NPe-8h-_CcpF1HoH4NOW-108" target="NPe-8h-_CcpF1HoH4NOW-112" edge="1">
          <mxGeometry relative="1" as="geometry">
            <mxPoint x="434" y="106.17999999999995" as="sourcePoint" />
            <mxPoint x="530" y="106.17999999999995" as="targetPoint" />
            <Array as="points">
              <mxPoint x="160" y="350" />
              <mxPoint x="100" y="350" />
            </Array>
          </mxGeometry>
        </mxCell>
        <mxCell id="NPe-8h-_CcpF1HoH4NOW-37" value="조회" style="edgeLabel;html=1;align=center;verticalAlign=middle;resizable=0;points=[];" parent="NPe-8h-_CcpF1HoH4NOW-35" vertex="1" connectable="0">
          <mxGeometry x="0.0356" y="-1" relative="1" as="geometry">
            <mxPoint x="12" y="-13" as="offset" />
          </mxGeometry>
        </mxCell>
        <mxCell id="NPe-8h-_CcpF1HoH4NOW-66" value="- 카테고리 코드 생성" style="text;html=1;strokeColor=none;fillColor=none;align=left;verticalAlign=middle;whiteSpace=wrap;rounded=0;" parent="1" vertex="1">
          <mxGeometry x="665" y="310.0100000000001" width="127" height="30" as="geometry" />
        </mxCell>
        <mxCell id="NPe-8h-_CcpF1HoH4NOW-67" value="- 대분류&lt;br&gt;- 중분류&lt;br&gt;- 소분류" style="text;html=1;strokeColor=none;fillColor=none;align=left;verticalAlign=middle;whiteSpace=wrap;rounded=0;" parent="1" vertex="1">
          <mxGeometry x="730.1200000000001" y="-109.88000000000011" width="50" height="60" as="geometry" />
        </mxCell>
        <mxCell id="NPe-8h-_CcpF1HoH4NOW-95" value="" style="edgeStyle=orthogonalEdgeStyle;rounded=0;orthogonalLoop=1;jettySize=auto;html=1;" parent="1" target="nD0UYpK1AcCFRPNusd-Y-5" edge="1">
          <mxGeometry relative="1" as="geometry">
            <mxPoint x="-420.0011764705883" y="173.75" as="sourcePoint" />
            <mxPoint x="-420.06" y="223.75" as="targetPoint" />
            <Array as="points">
              <mxPoint x="-420.06" y="250" />
              <mxPoint x="-345.06" y="250" />
            </Array>
          </mxGeometry>
        </mxCell>
        <mxCell id="NPe-8h-_CcpF1HoH4NOW-96" value="변경" style="edgeLabel;html=1;align=center;verticalAlign=middle;resizable=0;points=[];" parent="NPe-8h-_CcpF1HoH4NOW-95" vertex="1" connectable="0">
          <mxGeometry x="-0.0603" relative="1" as="geometry">
            <mxPoint x="2" y="-10" as="offset" />
          </mxGeometry>
        </mxCell>
        <mxCell id="NPe-8h-_CcpF1HoH4NOW-99" style="edgeStyle=orthogonalEdgeStyle;rounded=0;orthogonalLoop=1;jettySize=auto;html=1;dashed=1;entryX=0;entryY=0.5;entryDx=0;entryDy=0;" parent="1" target="NPe-8h-_CcpF1HoH4NOW-100" edge="1">
          <mxGeometry relative="1" as="geometry">
            <mxPoint x="-635.06" y="180" as="targetPoint" />
            <mxPoint x="-360.06" y="190" as="sourcePoint" />
          </mxGeometry>
        </mxCell>
        <mxCell id="NPe-8h-_CcpF1HoH4NOW-102" value="" style="edgeStyle=orthogonalEdgeStyle;rounded=0;orthogonalLoop=1;jettySize=auto;html=1;entryX=0.5;entryY=0;entryDx=0;entryDy=0;entryPerimeter=0;" parent="1" source="NPe-8h-_CcpF1HoH4NOW-100" target="nD0UYpK1AcCFRPNusd-Y-6" edge="1">
          <mxGeometry relative="1" as="geometry">
            <mxPoint x="-209.91" y="270" as="targetPoint" />
          </mxGeometry>
        </mxCell>
        <mxCell id="nD0UYpK1AcCFRPNusd-Y-7" value="저장" style="edgeLabel;html=1;align=center;verticalAlign=middle;resizable=0;points=[];" parent="NPe-8h-_CcpF1HoH4NOW-102" vertex="1" connectable="0">
          <mxGeometry x="-0.1027" y="2" relative="1" as="geometry">
            <mxPoint as="offset" />
          </mxGeometry>
        </mxCell>
        <mxCell id="NPe-8h-_CcpF1HoH4NOW-100" value="변경 사항 Log 저장" style="whiteSpace=wrap;html=1;" parent="1" vertex="1">
          <mxGeometry x="-239.91" y="160" width="120" height="60" as="geometry" />
        </mxCell>
        <mxCell id="nD0UYpK1AcCFRPNusd-Y-18" value="" style="edgeStyle=orthogonalEdgeStyle;rounded=0;orthogonalLoop=1;jettySize=auto;html=1;exitX=1;exitY=0.5;exitDx=0;exitDy=0;exitPerimeter=0;" parent="1" source="NPe-8h-_CcpF1HoH4NOW-103" target="NPe-8h-_CcpF1HoH4NOW-106" edge="1">
          <mxGeometry relative="1" as="geometry">
            <mxPoint x="40.00000000000006" y="-175.61999999999998" as="sourcePoint" />
            <Array as="points">
              <mxPoint x="160" y="-180" />
            </Array>
          </mxGeometry>
        </mxCell>
        <mxCell id="NPe-8h-_CcpF1HoH4NOW-103" value="상품 리스트" style="strokeWidth=2;html=1;shape=mxgraph.flowchart.display;whiteSpace=wrap;strokeColor=#FFD966;" parent="1" vertex="1">
          <mxGeometry x="-90.06" y="-210" width="100" height="60" as="geometry" />
        </mxCell>
        <mxCell id="NPe-8h-_CcpF1HoH4NOW-105" value="" style="edgeStyle=orthogonalEdgeStyle;rounded=0;orthogonalLoop=1;jettySize=auto;html=1;" parent="1" source="NPe-8h-_CcpF1HoH4NOW-104" target="NPe-8h-_CcpF1HoH4NOW-103" edge="1">
          <mxGeometry relative="1" as="geometry">
            <Array as="points">
              <mxPoint x="-40" y="-200" />
              <mxPoint x="-40" y="-200" />
            </Array>
          </mxGeometry>
        </mxCell>
        <mxCell id="nD0UYpK1AcCFRPNusd-Y-115" style="edgeStyle=orthogonalEdgeStyle;rounded=0;orthogonalLoop=1;jettySize=auto;html=1;exitX=0.5;exitY=1;exitDx=0;exitDy=0;exitPerimeter=0;endArrow=none;endFill=0;" parent="1" source="NPe-8h-_CcpF1HoH4NOW-104" target="NPe-8h-_CcpF1HoH4NOW-169" edge="1">
          <mxGeometry relative="1" as="geometry">
            <Array as="points">
              <mxPoint x="-40" y="-270" />
            </Array>
          </mxGeometry>
        </mxCell>
        <mxCell id="NPe-8h-_CcpF1HoH4NOW-104" value="상품 관리" style="strokeWidth=2;html=1;shape=mxgraph.flowchart.start_1;whiteSpace=wrap;strokeColor=#FF0000;" parent="1" vertex="1">
          <mxGeometry x="-90" y="-380" width="100" height="60" as="geometry" />
        </mxCell>
        <mxCell id="nD0UYpK1AcCFRPNusd-Y-19" value="" style="edgeStyle=orthogonalEdgeStyle;rounded=0;orthogonalLoop=1;jettySize=auto;html=1;" parent="1" source="NPe-8h-_CcpF1HoH4NOW-106" target="NPe-8h-_CcpF1HoH4NOW-107" edge="1">
          <mxGeometry relative="1" as="geometry" />
        </mxCell>
        <mxCell id="NPe-8h-_CcpF1HoH4NOW-106" value="검색 정보 입력&lt;br&gt;&lt;br&gt;[오름/내림 정렬]&lt;br&gt;&amp;nbsp;카테고리별&lt;br&gt;가격순&lt;br&gt;입고일&lt;br&gt;제조사별&lt;br&gt;상품번호&lt;br&gt;상품명(키워드)&lt;br&gt;할인률 (할인상품)&lt;br&gt;&lt;span style=&quot;border-color: var(--border-color); background-color: initial;&quot;&gt;마진율&lt;br&gt;&lt;/span&gt;&lt;span style=&quot;background-color: initial;&quot;&gt;판매 유무&lt;br&gt;추천 유무&lt;br&gt;&lt;/span&gt;&lt;span style=&quot;background-color: initial;&quot;&gt;[UI는 고민 해보기]&lt;/span&gt;&lt;span style=&quot;background-color: initial;&quot;&gt;&lt;br&gt;&lt;/span&gt;&lt;span style=&quot;background-color: initial;&quot;&gt;&lt;br&gt;삭제 ⇒ Y/N (변경)&lt;br&gt;&lt;/span&gt;&lt;span style=&quot;background-color: initial;&quot;&gt;추천 상품 ⇒ Y/N (변경)&lt;/span&gt;" style="shape=parallelogram;html=1;strokeWidth=2;perimeter=parallelogramPerimeter;whiteSpace=wrap;rounded=1;arcSize=12;size=0.23;strokeColor=#009900;" parent="1" vertex="1">
          <mxGeometry x="39.94" y="-135.61999999999998" width="240.12" height="260.5" as="geometry" />
        </mxCell>
        <mxCell id="nD0UYpK1AcCFRPNusd-Y-20" value="" style="edgeStyle=orthogonalEdgeStyle;rounded=0;orthogonalLoop=1;jettySize=auto;html=1;" parent="1" source="NPe-8h-_CcpF1HoH4NOW-107" target="NPe-8h-_CcpF1HoH4NOW-108" edge="1">
          <mxGeometry relative="1" as="geometry" />
        </mxCell>
        <mxCell id="nD0UYpK1AcCFRPNusd-Y-21" value="YES" style="edgeLabel;html=1;align=center;verticalAlign=middle;resizable=0;points=[];" parent="nD0UYpK1AcCFRPNusd-Y-20" vertex="1" connectable="0">
          <mxGeometry x="-0.43" relative="1" as="geometry">
            <mxPoint y="6" as="offset" />
          </mxGeometry>
        </mxCell>
        <mxCell id="NPe-8h-_CcpF1HoH4NOW-107" value="상품 정보 검색" style="strokeWidth=2;html=1;shape=mxgraph.flowchart.decision;whiteSpace=wrap;" parent="1" vertex="1">
          <mxGeometry x="100" y="154.38000000000002" width="120" height="60.75" as="geometry" />
        </mxCell>
        <mxCell id="s3edlqQe-rxAXCFqVmzd-176" style="edgeStyle=orthogonalEdgeStyle;rounded=0;orthogonalLoop=1;jettySize=auto;html=1;entryX=0.5;entryY=0;entryDx=0;entryDy=0;entryPerimeter=0;" edge="1" parent="1" source="NPe-8h-_CcpF1HoH4NOW-108" target="s3edlqQe-rxAXCFqVmzd-174">
          <mxGeometry relative="1" as="geometry">
            <Array as="points">
              <mxPoint x="160" y="350" />
              <mxPoint x="630" y="350" />
            </Array>
          </mxGeometry>
        </mxCell>
        <mxCell id="NPe-8h-_CcpF1HoH4NOW-108" value="&lt;div style=&quot;&quot;&gt;&lt;span style=&quot;background-color: initial;&quot;&gt;검색&lt;/span&gt;&lt;/div&gt;" style="rounded=1;whiteSpace=wrap;html=1;absoluteArcSize=1;arcSize=14;strokeWidth=2;align=center;strokeColor=#009900;" parent="1" vertex="1">
          <mxGeometry x="100.06" y="256.38" width="119.88" height="50" as="geometry" />
        </mxCell>
        <mxCell id="NPe-8h-_CcpF1HoH4NOW-112" value="상품 DB" style="strokeWidth=2;html=1;shape=mxgraph.flowchart.database;whiteSpace=wrap;" parent="1" vertex="1">
          <mxGeometry x="50" y="384.38" width="100" height="70" as="geometry" />
        </mxCell>
        <mxCell id="nD0UYpK1AcCFRPNusd-Y-2" value="" style="edgeStyle=orthogonalEdgeStyle;rounded=0;orthogonalLoop=1;jettySize=auto;html=1;" parent="1" source="NPe-8h-_CcpF1HoH4NOW-113" edge="1">
          <mxGeometry relative="1" as="geometry">
            <mxPoint x="-360.06" y="-39.94117647058829" as="targetPoint" />
          </mxGeometry>
        </mxCell>
        <mxCell id="nD0UYpK1AcCFRPNusd-Y-4" value="YES" style="edgeLabel;html=1;align=center;verticalAlign=middle;resizable=0;points=[];" parent="nD0UYpK1AcCFRPNusd-Y-2" vertex="1" connectable="0">
          <mxGeometry x="-0.0608" relative="1" as="geometry">
            <mxPoint as="offset" />
          </mxGeometry>
        </mxCell>
        <mxCell id="NPe-8h-_CcpF1HoH4NOW-113" value="상품 정보 수정" style="strokeWidth=2;html=1;shape=mxgraph.flowchart.decision;whiteSpace=wrap;" parent="1" vertex="1">
          <mxGeometry x="-275.06" y="-70.25" width="120" height="60.75" as="geometry" />
        </mxCell>
        <mxCell id="NPe-8h-_CcpF1HoH4NOW-260" value="" style="edgeStyle=orthogonalEdgeStyle;rounded=0;orthogonalLoop=1;jettySize=auto;html=1;entryX=0.5;entryY=0;entryDx=0;entryDy=0;entryPerimeter=0;" parent="1" source="NPe-8h-_CcpF1HoH4NOW-137" target="NPe-8h-_CcpF1HoH4NOW-259" edge="1">
          <mxGeometry relative="1" as="geometry">
            <Array as="points">
              <mxPoint x="-741" y="-220" />
              <mxPoint x="-742" y="-220" />
            </Array>
          </mxGeometry>
        </mxCell>
        <mxCell id="NPe-8h-_CcpF1HoH4NOW-137" value="상품 등록" style="strokeWidth=2;html=1;shape=mxgraph.flowchart.start_1;whiteSpace=wrap;strokeColor=#FF0000;" parent="1" vertex="1">
          <mxGeometry x="-791.73" y="-300" width="100" height="60" as="geometry" />
        </mxCell>
        <mxCell id="s3edlqQe-rxAXCFqVmzd-208" style="edgeStyle=orthogonalEdgeStyle;rounded=0;orthogonalLoop=1;jettySize=auto;html=1;" edge="1" parent="1" source="NPe-8h-_CcpF1HoH4NOW-139" target="NPe-8h-_CcpF1HoH4NOW-173">
          <mxGeometry relative="1" as="geometry" />
        </mxCell>
        <mxCell id="NPe-8h-_CcpF1HoH4NOW-139" value="카테고리 정보 입력&lt;br&gt;대. 중. 소 명칭 추가" style="shape=parallelogram;html=1;strokeWidth=2;perimeter=parallelogramPerimeter;whiteSpace=wrap;rounded=1;arcSize=12;size=0.23;strokeColor=#009900;" parent="1" vertex="1">
          <mxGeometry x="820" y="60" width="160" height="60" as="geometry" />
        </mxCell>
        <mxCell id="NPe-8h-_CcpF1HoH4NOW-140" value="상품 정보 입력&lt;br&gt;&lt;br style=&quot;border-color: var(--border-color);&quot;&gt;이미지&lt;br style=&quot;border-color: var(--border-color);&quot;&gt;상품명&lt;br style=&quot;border-color: var(--border-color);&quot;&gt;제조사&lt;br style=&quot;border-color: var(--border-color);&quot;&gt;* 판매가&lt;br style=&quot;border-color: var(--border-color);&quot;&gt;원가&lt;br style=&quot;border-color: var(--border-color);&quot;&gt;*할인율&lt;br style=&quot;border-color: var(--border-color);&quot;&gt;*입고 수량&lt;br style=&quot;border-color: var(--border-color);&quot;&gt;카테고리 코드&lt;br style=&quot;border-color: var(--border-color);&quot;&gt;상품 설명&lt;br style=&quot;border-color: var(--border-color);&quot;&gt;상품 구분&lt;br style=&quot;border-color: var(--border-color);&quot;&gt;(예약, 신규, 입고 완료)&amp;nbsp;" style="shape=parallelogram;html=1;strokeWidth=2;perimeter=parallelogramPerimeter;whiteSpace=wrap;rounded=1;arcSize=12;size=0.23;strokeColor=#009900;" parent="1" vertex="1">
          <mxGeometry x="-850" y="-120" width="216.54" height="203" as="geometry" />
        </mxCell>
        <mxCell id="s3edlqQe-rxAXCFqVmzd-168" style="edgeStyle=orthogonalEdgeStyle;rounded=0;orthogonalLoop=1;jettySize=auto;html=1;" edge="1" parent="1" source="NPe-8h-_CcpF1HoH4NOW-156" target="s3edlqQe-rxAXCFqVmzd-165">
          <mxGeometry relative="1" as="geometry">
            <Array as="points">
              <mxPoint x="-742" y="250" />
              <mxPoint x="-665" y="250" />
            </Array>
          </mxGeometry>
        </mxCell>
        <mxCell id="s3edlqQe-rxAXCFqVmzd-169" value="등록" style="edgeLabel;html=1;align=center;verticalAlign=middle;resizable=0;points=[];" vertex="1" connectable="0" parent="s3edlqQe-rxAXCFqVmzd-168">
          <mxGeometry x="-0.3675" y="-2" relative="1" as="geometry">
            <mxPoint x="-1" y="-13" as="offset" />
          </mxGeometry>
        </mxCell>
        <mxCell id="NPe-8h-_CcpF1HoH4NOW-156" value="등록" style="rounded=1;whiteSpace=wrap;html=1;absoluteArcSize=1;arcSize=14;strokeWidth=2;align=center;strokeColor=#009900;" parent="1" vertex="1">
          <mxGeometry x="-796.73" y="160" width="110" height="60.62" as="geometry" />
        </mxCell>
        <mxCell id="NPe-8h-_CcpF1HoH4NOW-171" value="" style="edgeStyle=orthogonalEdgeStyle;rounded=0;orthogonalLoop=1;jettySize=auto;html=1;" parent="1" source="NPe-8h-_CcpF1HoH4NOW-169" target="NPe-8h-_CcpF1HoH4NOW-170" edge="1">
          <mxGeometry relative="1" as="geometry">
            <Array as="points">
              <mxPoint x="720" y="-220" />
              <mxPoint x="720" y="-220" />
            </Array>
          </mxGeometry>
        </mxCell>
        <mxCell id="NPe-8h-_CcpF1HoH4NOW-169" value="카테고리 관리" style="strokeWidth=2;html=1;shape=mxgraph.flowchart.start_1;whiteSpace=wrap;strokeColor=#FF0000;" parent="1" vertex="1">
          <mxGeometry x="670" y="-300" width="100" height="60" as="geometry" />
        </mxCell>
        <mxCell id="s3edlqQe-rxAXCFqVmzd-205" style="edgeStyle=orthogonalEdgeStyle;rounded=0;orthogonalLoop=1;jettySize=auto;html=1;" edge="1" parent="1" source="NPe-8h-_CcpF1HoH4NOW-170" target="s3edlqQe-rxAXCFqVmzd-191">
          <mxGeometry relative="1" as="geometry">
            <Array as="points">
              <mxPoint x="460" y="-140" />
              <mxPoint x="460" y="-90" />
              <mxPoint x="350" y="-90" />
            </Array>
          </mxGeometry>
        </mxCell>
        <mxCell id="NPe-8h-_CcpF1HoH4NOW-170" value="카테고리 리스트" style="strokeWidth=2;html=1;shape=mxgraph.flowchart.display;whiteSpace=wrap;strokeColor=#FFD966;" parent="1" vertex="1">
          <mxGeometry x="670" y="-169.88" width="100" height="60" as="geometry" />
        </mxCell>
        <mxCell id="NPe-8h-_CcpF1HoH4NOW-176" value="" style="edgeStyle=orthogonalEdgeStyle;rounded=0;orthogonalLoop=1;jettySize=auto;html=1;" parent="1" source="s3edlqQe-rxAXCFqVmzd-181" target="NPe-8h-_CcpF1HoH4NOW-139" edge="1">
          <mxGeometry relative="1" as="geometry" />
        </mxCell>
        <mxCell id="s3edlqQe-rxAXCFqVmzd-188" value="YES" style="edgeLabel;html=1;align=center;verticalAlign=middle;resizable=0;points=[];" vertex="1" connectable="0" parent="NPe-8h-_CcpF1HoH4NOW-176">
          <mxGeometry x="-0.2534" relative="1" as="geometry">
            <mxPoint as="offset" />
          </mxGeometry>
        </mxCell>
        <mxCell id="NPe-8h-_CcpF1HoH4NOW-173" value="카테고리 추가" style="rounded=1;whiteSpace=wrap;html=1;absoluteArcSize=1;arcSize=14;strokeWidth=2;align=center;strokeColor=#009900;" parent="1" vertex="1">
          <mxGeometry x="845" y="180" width="110" height="60" as="geometry" />
        </mxCell>
        <mxCell id="NPe-8h-_CcpF1HoH4NOW-187" value="" style="edgeStyle=orthogonalEdgeStyle;rounded=0;orthogonalLoop=1;jettySize=auto;html=1;entryX=0;entryY=0.5;entryDx=0;entryDy=0;entryPerimeter=0;exitX=0.5;exitY=1;exitDx=0;exitDy=0;" parent="1" source="NPe-8h-_CcpF1HoH4NOW-184" target="NPe-8h-_CcpF1HoH4NOW-195" edge="1">
          <mxGeometry relative="1" as="geometry">
            <mxPoint x="345" y="140" as="targetPoint" />
            <mxPoint x="550" y="98.25" as="sourcePoint" />
            <Array as="points">
              <mxPoint x="550" y="275" />
            </Array>
          </mxGeometry>
        </mxCell>
        <mxCell id="NPe-8h-_CcpF1HoH4NOW-188" value="저장" style="edgeLabel;html=1;align=center;verticalAlign=middle;resizable=0;points=[];" parent="NPe-8h-_CcpF1HoH4NOW-187" vertex="1" connectable="0">
          <mxGeometry x="-0.1143" y="-1" relative="1" as="geometry">
            <mxPoint x="331" y="-6" as="offset" />
          </mxGeometry>
        </mxCell>
        <mxCell id="s3edlqQe-rxAXCFqVmzd-184" value="수정" style="edgeLabel;html=1;align=center;verticalAlign=middle;resizable=0;points=[];" vertex="1" connectable="0" parent="NPe-8h-_CcpF1HoH4NOW-187">
          <mxGeometry x="-0.1143" y="-1" relative="1" as="geometry">
            <mxPoint x="21" as="offset" />
          </mxGeometry>
        </mxCell>
        <mxCell id="NPe-8h-_CcpF1HoH4NOW-184" value="수정 사항 입력&lt;br&gt;대/중/소 명칭 수정" style="shape=parallelogram;html=1;strokeWidth=2;perimeter=parallelogramPerimeter;whiteSpace=wrap;rounded=1;arcSize=12;size=0.23;strokeColor=#009900;" parent="1" vertex="1">
          <mxGeometry x="470" y="100" width="160" height="60" as="geometry" />
        </mxCell>
        <mxCell id="NPe-8h-_CcpF1HoH4NOW-193" value="" style="edgeStyle=orthogonalEdgeStyle;rounded=0;orthogonalLoop=1;jettySize=auto;html=1;exitX=0.5;exitY=1;exitDx=0;exitDy=0;" parent="1" source="nD0UYpK1AcCFRPNusd-Y-49" target="NPe-8h-_CcpF1HoH4NOW-192" edge="1">
          <mxGeometry relative="1" as="geometry">
            <mxPoint x="-324" y="1988.83" as="sourcePoint" />
            <Array as="points">
              <mxPoint x="-730" y="1960" />
              <mxPoint x="-324" y="1960" />
            </Array>
          </mxGeometry>
        </mxCell>
        <mxCell id="NPe-8h-_CcpF1HoH4NOW-207" value="" style="edgeStyle=orthogonalEdgeStyle;rounded=0;orthogonalLoop=1;jettySize=auto;html=1;" parent="1" source="NPe-8h-_CcpF1HoH4NOW-192" target="NPe-8h-_CcpF1HoH4NOW-196" edge="1">
          <mxGeometry relative="1" as="geometry" />
        </mxCell>
        <mxCell id="NPe-8h-_CcpF1HoH4NOW-192" value="찜하기" style="shape=parallelogram;html=1;strokeWidth=2;perimeter=parallelogramPerimeter;whiteSpace=wrap;rounded=1;arcSize=12;size=0.23;strokeColor=#009900;" parent="1" vertex="1">
          <mxGeometry x="-404" y="2038.83" width="160" height="60" as="geometry" />
        </mxCell>
        <mxCell id="nD0UYpK1AcCFRPNusd-Y-33" value="" style="edgeStyle=orthogonalEdgeStyle;rounded=0;orthogonalLoop=1;jettySize=auto;html=1;exitX=0.5;exitY=0;exitDx=0;exitDy=0;exitPerimeter=0;" parent="1" source="NPe-8h-_CcpF1HoH4NOW-195" edge="1">
          <mxGeometry relative="1" as="geometry">
            <mxPoint x="725" y="239.9999999999999" as="sourcePoint" />
            <mxPoint x="720" y="-110" as="targetPoint" />
            <Array as="points" />
          </mxGeometry>
        </mxCell>
        <mxCell id="nD0UYpK1AcCFRPNusd-Y-34" value="내보내기" style="edgeLabel;html=1;align=center;verticalAlign=middle;resizable=0;points=[];" parent="nD0UYpK1AcCFRPNusd-Y-33" vertex="1" connectable="0">
          <mxGeometry x="-0.1514" y="1" relative="1" as="geometry">
            <mxPoint y="31" as="offset" />
          </mxGeometry>
        </mxCell>
        <mxCell id="NPe-8h-_CcpF1HoH4NOW-195" value="상품 카테고리&amp;nbsp;DB" style="strokeWidth=2;html=1;shape=mxgraph.flowchart.database;whiteSpace=wrap;" parent="1" vertex="1">
          <mxGeometry x="670" y="239.9999999999999" width="100" height="70" as="geometry" />
        </mxCell>
        <mxCell id="NPe-8h-_CcpF1HoH4NOW-198" value="" style="edgeStyle=orthogonalEdgeStyle;rounded=0;orthogonalLoop=1;jettySize=auto;html=1;" parent="1" source="NPe-8h-_CcpF1HoH4NOW-196" target="NPe-8h-_CcpF1HoH4NOW-197" edge="1">
          <mxGeometry relative="1" as="geometry" />
        </mxCell>
        <mxCell id="NPe-8h-_CcpF1HoH4NOW-199" value="삭제" style="edgeLabel;html=1;align=center;verticalAlign=middle;resizable=0;points=[];" parent="NPe-8h-_CcpF1HoH4NOW-198" vertex="1" connectable="0">
          <mxGeometry x="0.0097" y="-4" relative="1" as="geometry">
            <mxPoint y="-3" as="offset" />
          </mxGeometry>
        </mxCell>
        <mxCell id="NPe-8h-_CcpF1HoH4NOW-201" value="" style="edgeStyle=orthogonalEdgeStyle;rounded=0;orthogonalLoop=1;jettySize=auto;html=1;" parent="1" source="NPe-8h-_CcpF1HoH4NOW-196" target="NPe-8h-_CcpF1HoH4NOW-200" edge="1">
          <mxGeometry relative="1" as="geometry" />
        </mxCell>
        <mxCell id="NPe-8h-_CcpF1HoH4NOW-202" value="등록" style="edgeLabel;html=1;align=center;verticalAlign=middle;resizable=0;points=[];" parent="NPe-8h-_CcpF1HoH4NOW-201" vertex="1" connectable="0">
          <mxGeometry x="-0.0668" y="-1" relative="1" as="geometry">
            <mxPoint x="-1" y="2" as="offset" />
          </mxGeometry>
        </mxCell>
        <mxCell id="NPe-8h-_CcpF1HoH4NOW-215" value="" style="edgeStyle=orthogonalEdgeStyle;rounded=0;orthogonalLoop=1;jettySize=auto;html=1;" parent="1" source="NPe-8h-_CcpF1HoH4NOW-196" target="NPe-8h-_CcpF1HoH4NOW-214" edge="1">
          <mxGeometry relative="1" as="geometry" />
        </mxCell>
        <mxCell id="NPe-8h-_CcpF1HoH4NOW-196" value="찜 / 삭제" style="strokeWidth=2;html=1;shape=mxgraph.flowchart.decision;whiteSpace=wrap;" parent="1" vertex="1">
          <mxGeometry x="-384" y="2158.08" width="120" height="60.75" as="geometry" />
        </mxCell>
        <mxCell id="NPe-8h-_CcpF1HoH4NOW-197" value="찜 이력 삭제 진행" style="rounded=1;whiteSpace=wrap;html=1;absoluteArcSize=1;arcSize=14;strokeWidth=2;align=center;strokeColor=#009900;" parent="1" vertex="1">
          <mxGeometry x="-204" y="2158.83" width="110" height="60" as="geometry" />
        </mxCell>
        <mxCell id="NPe-8h-_CcpF1HoH4NOW-200" value="찜 이력 등록" style="rounded=1;whiteSpace=wrap;html=1;absoluteArcSize=1;arcSize=14;strokeWidth=2;align=center;strokeColor=#009900;" parent="1" vertex="1">
          <mxGeometry x="-554" y="2160.08" width="110" height="60" as="geometry" />
        </mxCell>
        <mxCell id="NPe-8h-_CcpF1HoH4NOW-203" style="edgeStyle=orthogonalEdgeStyle;rounded=0;orthogonalLoop=1;jettySize=auto;html=1;exitX=0.5;exitY=1;exitDx=0;exitDy=0;entryX=0.5;entryY=0;entryDx=0;entryDy=0;entryPerimeter=0;" parent="1" source="NPe-8h-_CcpF1HoH4NOW-200" target="NPe-8h-_CcpF1HoH4NOW-211" edge="1">
          <mxGeometry relative="1" as="geometry">
            <mxPoint x="-204" y="2344.58" as="targetPoint" />
          </mxGeometry>
        </mxCell>
        <mxCell id="NPe-8h-_CcpF1HoH4NOW-205" value="저장" style="edgeLabel;html=1;align=center;verticalAlign=middle;resizable=0;points=[];" parent="NPe-8h-_CcpF1HoH4NOW-203" vertex="1" connectable="0">
          <mxGeometry x="0.373" y="-2" relative="1" as="geometry">
            <mxPoint x="2" y="-47" as="offset" />
          </mxGeometry>
        </mxCell>
        <mxCell id="NPe-8h-_CcpF1HoH4NOW-209" value="" style="edgeStyle=orthogonalEdgeStyle;rounded=0;orthogonalLoop=1;jettySize=auto;html=1;entryX=0.5;entryY=0;entryDx=0;entryDy=0;entryPerimeter=0;" parent="1" source="NPe-8h-_CcpF1HoH4NOW-197" target="NPe-8h-_CcpF1HoH4NOW-208" edge="1">
          <mxGeometry relative="1" as="geometry">
            <mxPoint x="-154" y="2219.08" as="sourcePoint" />
            <mxPoint x="-104" y="2344.58" as="targetPoint" />
            <Array as="points" />
          </mxGeometry>
        </mxCell>
        <mxCell id="NPe-8h-_CcpF1HoH4NOW-212" value="저장" style="edgeLabel;html=1;align=center;verticalAlign=middle;resizable=0;points=[];" parent="NPe-8h-_CcpF1HoH4NOW-209" vertex="1" connectable="0">
          <mxGeometry x="-0.1807" y="3" relative="1" as="geometry">
            <mxPoint x="-4" y="5" as="offset" />
          </mxGeometry>
        </mxCell>
        <mxCell id="NPe-8h-_CcpF1HoH4NOW-217" value="" style="edgeStyle=orthogonalEdgeStyle;rounded=0;orthogonalLoop=1;jettySize=auto;html=1;" parent="1" source="NPe-8h-_CcpF1HoH4NOW-208" target="NPe-8h-_CcpF1HoH4NOW-214" edge="1">
          <mxGeometry relative="1" as="geometry" />
        </mxCell>
        <mxCell id="NPe-8h-_CcpF1HoH4NOW-208" value="찜 관리 DB" style="strokeWidth=2;html=1;shape=mxgraph.flowchart.database;whiteSpace=wrap;" parent="1" vertex="1">
          <mxGeometry x="-199" y="2390.33" width="100" height="70" as="geometry" />
        </mxCell>
        <mxCell id="NPe-8h-_CcpF1HoH4NOW-216" value="" style="edgeStyle=orthogonalEdgeStyle;rounded=0;orthogonalLoop=1;jettySize=auto;html=1;" parent="1" source="NPe-8h-_CcpF1HoH4NOW-211" target="NPe-8h-_CcpF1HoH4NOW-214" edge="1">
          <mxGeometry relative="1" as="geometry" />
        </mxCell>
        <mxCell id="NPe-8h-_CcpF1HoH4NOW-211" value="찜 관리 DB" style="strokeWidth=2;html=1;shape=mxgraph.flowchart.database;whiteSpace=wrap;" parent="1" vertex="1">
          <mxGeometry x="-549" y="2390.33" width="100" height="70" as="geometry" />
        </mxCell>
        <mxCell id="NPe-8h-_CcpF1HoH4NOW-219" value="" style="edgeStyle=orthogonalEdgeStyle;rounded=0;orthogonalLoop=1;jettySize=auto;html=1;" parent="1" source="NPe-8h-_CcpF1HoH4NOW-214" target="NPe-8h-_CcpF1HoH4NOW-218" edge="1">
          <mxGeometry relative="1" as="geometry" />
        </mxCell>
        <mxCell id="NPe-8h-_CcpF1HoH4NOW-220" value="수정" style="edgeLabel;html=1;align=center;verticalAlign=middle;resizable=0;points=[];" parent="NPe-8h-_CcpF1HoH4NOW-219" vertex="1" connectable="0">
          <mxGeometry x="-0.143" relative="1" as="geometry">
            <mxPoint as="offset" />
          </mxGeometry>
        </mxCell>
        <mxCell id="NPe-8h-_CcpF1HoH4NOW-214" value="상품 테이블&lt;br&gt;찜하기 수 수정" style="rounded=1;whiteSpace=wrap;html=1;strokeWidth=2;strokeColor=#009900;" parent="1" vertex="1">
          <mxGeometry x="-384" y="2395.335" width="120" height="60" as="geometry" />
        </mxCell>
        <mxCell id="NPe-8h-_CcpF1HoH4NOW-218" value="상품 DB" style="strokeWidth=2;html=1;shape=mxgraph.flowchart.database;whiteSpace=wrap;" parent="1" vertex="1">
          <mxGeometry x="-374" y="2510.33" width="100" height="70" as="geometry" />
        </mxCell>
        <mxCell id="NPe-8h-_CcpF1HoH4NOW-229" style="edgeStyle=orthogonalEdgeStyle;rounded=0;orthogonalLoop=1;jettySize=auto;html=1;exitX=0.5;exitY=1;exitDx=0;exitDy=0;exitPerimeter=0;entryX=0.5;entryY=0;entryDx=0;entryDy=0;entryPerimeter=0;" parent="1" source="NPe-8h-_CcpF1HoH4NOW-221" target="NPe-8h-_CcpF1HoH4NOW-226" edge="1">
          <mxGeometry relative="1" as="geometry">
            <mxPoint x="340" y="860" as="sourcePoint" />
            <Array as="points">
              <mxPoint x="-40" y="890" />
              <mxPoint x="-780" y="890" />
            </Array>
          </mxGeometry>
        </mxCell>
        <mxCell id="NPe-8h-_CcpF1HoH4NOW-231" style="edgeStyle=orthogonalEdgeStyle;rounded=0;orthogonalLoop=1;jettySize=auto;html=1;exitX=0.5;exitY=1;exitDx=0;exitDy=0;exitPerimeter=0;" parent="1" source="NPe-8h-_CcpF1HoH4NOW-221" target="NPe-8h-_CcpF1HoH4NOW-223" edge="1">
          <mxGeometry relative="1" as="geometry">
            <mxPoint x="340" y="860" as="sourcePoint" />
            <Array as="points">
              <mxPoint x="-40" y="890" />
              <mxPoint x="400" y="890" />
            </Array>
          </mxGeometry>
        </mxCell>
        <mxCell id="NPe-8h-_CcpF1HoH4NOW-232" style="edgeStyle=orthogonalEdgeStyle;rounded=0;orthogonalLoop=1;jettySize=auto;html=1;exitX=0.5;exitY=1;exitDx=0;exitDy=0;exitPerimeter=0;" parent="1" source="NPe-8h-_CcpF1HoH4NOW-221" target="NPe-8h-_CcpF1HoH4NOW-224" edge="1">
          <mxGeometry relative="1" as="geometry">
            <mxPoint x="340" y="860" as="sourcePoint" />
            <Array as="points">
              <mxPoint x="-40" y="890" />
              <mxPoint x="-290" y="890" />
            </Array>
          </mxGeometry>
        </mxCell>
        <mxCell id="NPe-8h-_CcpF1HoH4NOW-233" style="edgeStyle=orthogonalEdgeStyle;rounded=0;orthogonalLoop=1;jettySize=auto;html=1;exitX=0.5;exitY=1;exitDx=0;exitDy=0;exitPerimeter=0;" parent="1" source="NPe-8h-_CcpF1HoH4NOW-221" target="NPe-8h-_CcpF1HoH4NOW-225" edge="1">
          <mxGeometry relative="1" as="geometry">
            <mxPoint x="340" y="860" as="sourcePoint" />
            <Array as="points">
              <mxPoint x="-40" y="890" />
              <mxPoint x="600" y="890" />
            </Array>
          </mxGeometry>
        </mxCell>
        <mxCell id="NPe-8h-_CcpF1HoH4NOW-234" style="edgeStyle=orthogonalEdgeStyle;rounded=0;orthogonalLoop=1;jettySize=auto;html=1;exitX=0.5;exitY=1;exitDx=0;exitDy=0;exitPerimeter=0;entryX=0.5;entryY=0;entryDx=0;entryDy=0;entryPerimeter=0;" parent="1" target="NPe-8h-_CcpF1HoH4NOW-227" edge="1" source="NPe-8h-_CcpF1HoH4NOW-221">
          <mxGeometry relative="1" as="geometry">
            <mxPoint x="390" y="860" as="sourcePoint" />
            <Array as="points">
              <mxPoint x="-40" y="890" />
              <mxPoint x="1080" y="890" />
            </Array>
          </mxGeometry>
        </mxCell>
        <mxCell id="NPe-8h-_CcpF1HoH4NOW-221" value="상품 목록" style="strokeWidth=2;html=1;shape=mxgraph.flowchart.start_1;whiteSpace=wrap;strokeColor=#FF0000;" parent="1" vertex="1">
          <mxGeometry x="-90" y="770" width="100" height="60" as="geometry" />
        </mxCell>
        <mxCell id="NPe-8h-_CcpF1HoH4NOW-237" style="edgeStyle=orthogonalEdgeStyle;rounded=0;orthogonalLoop=1;jettySize=auto;html=1;" parent="1" source="NPe-8h-_CcpF1HoH4NOW-222" target="NPe-8h-_CcpF1HoH4NOW-228" edge="1">
          <mxGeometry relative="1" as="geometry">
            <mxPoint x="340" y="1703.75" as="targetPoint" />
            <Array as="points">
              <mxPoint x="210" y="1770" />
              <mxPoint x="210" y="1770" />
            </Array>
          </mxGeometry>
        </mxCell>
        <mxCell id="s3edlqQe-rxAXCFqVmzd-112" style="edgeStyle=orthogonalEdgeStyle;rounded=0;orthogonalLoop=1;jettySize=auto;html=1;exitX=0.5;exitY=1;exitDx=0;exitDy=0;exitPerimeter=0;entryX=1;entryY=0.5;entryDx=0;entryDy=0;" edge="1" parent="1" source="NPe-8h-_CcpF1HoH4NOW-222" target="s3edlqQe-rxAXCFqVmzd-81">
          <mxGeometry relative="1" as="geometry">
            <Array as="points">
              <mxPoint x="210" y="1080" />
            </Array>
          </mxGeometry>
        </mxCell>
        <mxCell id="NPe-8h-_CcpF1HoH4NOW-222" value="할인 상품" style="strokeWidth=2;html=1;shape=mxgraph.flowchart.display;whiteSpace=wrap;strokeColor=#FFD966;" parent="1" vertex="1">
          <mxGeometry x="160" y="920" width="100" height="60" as="geometry" />
        </mxCell>
        <mxCell id="NPe-8h-_CcpF1HoH4NOW-223" value="베스트 상품" style="strokeWidth=2;html=1;shape=mxgraph.flowchart.display;whiteSpace=wrap;strokeColor=#FFD966;" parent="1" vertex="1">
          <mxGeometry x="350" y="920" width="100" height="60" as="geometry" />
        </mxCell>
        <mxCell id="s3edlqQe-rxAXCFqVmzd-114" style="edgeStyle=orthogonalEdgeStyle;rounded=0;orthogonalLoop=1;jettySize=auto;html=1;exitX=0.5;exitY=1;exitDx=0;exitDy=0;exitPerimeter=0;entryX=1;entryY=0.5;entryDx=0;entryDy=0;" edge="1" parent="1" source="NPe-8h-_CcpF1HoH4NOW-224" target="s3edlqQe-rxAXCFqVmzd-51">
          <mxGeometry relative="1" as="geometry">
            <Array as="points">
              <mxPoint x="-290" y="1080" />
            </Array>
          </mxGeometry>
        </mxCell>
        <mxCell id="NPe-8h-_CcpF1HoH4NOW-224" value="예약 상품" style="strokeWidth=2;html=1;shape=mxgraph.flowchart.display;whiteSpace=wrap;strokeColor=#FFD966;" parent="1" vertex="1">
          <mxGeometry x="-339.90999999999997" y="920" width="100" height="60" as="geometry" />
        </mxCell>
        <mxCell id="NPe-8h-_CcpF1HoH4NOW-240" style="edgeStyle=orthogonalEdgeStyle;rounded=0;orthogonalLoop=1;jettySize=auto;html=1;exitX=0.5;exitY=1;exitDx=0;exitDy=0;exitPerimeter=0;entryX=0.5;entryY=0;entryDx=0;entryDy=0;entryPerimeter=0;" parent="1" source="NPe-8h-_CcpF1HoH4NOW-225" target="NPe-8h-_CcpF1HoH4NOW-228" edge="1">
          <mxGeometry relative="1" as="geometry">
            <mxPoint x="340" y="1703.75" as="targetPoint" />
            <Array as="points">
              <mxPoint x="600" y="1670" />
              <mxPoint x="210" y="1670" />
            </Array>
          </mxGeometry>
        </mxCell>
        <mxCell id="NPe-8h-_CcpF1HoH4NOW-225" value="추천 상품" style="strokeWidth=2;html=1;shape=mxgraph.flowchart.display;whiteSpace=wrap;strokeColor=#FFD966;" parent="1" vertex="1">
          <mxGeometry x="550" y="920" width="100" height="60" as="geometry" />
        </mxCell>
        <mxCell id="NPe-8h-_CcpF1HoH4NOW-235" style="edgeStyle=orthogonalEdgeStyle;rounded=0;orthogonalLoop=1;jettySize=auto;html=1;exitX=0.5;exitY=1;exitDx=0;exitDy=0;exitPerimeter=0;entryX=0.5;entryY=0;entryDx=0;entryDy=0;entryPerimeter=0;" parent="1" source="NPe-8h-_CcpF1HoH4NOW-226" target="NPe-8h-_CcpF1HoH4NOW-228" edge="1">
          <mxGeometry relative="1" as="geometry">
            <mxPoint x="340" y="1703.75" as="targetPoint" />
            <Array as="points">
              <mxPoint x="-780" y="1670" />
              <mxPoint x="210" y="1670" />
            </Array>
          </mxGeometry>
        </mxCell>
        <mxCell id="s3edlqQe-rxAXCFqVmzd-115" style="edgeStyle=orthogonalEdgeStyle;rounded=0;orthogonalLoop=1;jettySize=auto;html=1;exitX=0.5;exitY=1;exitDx=0;exitDy=0;exitPerimeter=0;entryX=1;entryY=0.5;entryDx=0;entryDy=0;" edge="1" parent="1" source="NPe-8h-_CcpF1HoH4NOW-226" target="s3edlqQe-rxAXCFqVmzd-6">
          <mxGeometry relative="1" as="geometry">
            <Array as="points">
              <mxPoint x="-780" y="1080" />
            </Array>
          </mxGeometry>
        </mxCell>
        <mxCell id="NPe-8h-_CcpF1HoH4NOW-226" value="신상품" style="strokeWidth=2;html=1;shape=mxgraph.flowchart.display;whiteSpace=wrap;strokeColor=#FFD966;" parent="1" vertex="1">
          <mxGeometry x="-830" y="920" width="100" height="60" as="geometry" />
        </mxCell>
        <mxCell id="s3edlqQe-rxAXCFqVmzd-113" style="edgeStyle=orthogonalEdgeStyle;rounded=0;orthogonalLoop=1;jettySize=auto;html=1;exitX=0.5;exitY=1;exitDx=0;exitDy=0;exitPerimeter=0;entryX=1;entryY=0.5;entryDx=0;entryDy=0;" edge="1" parent="1" source="NPe-8h-_CcpF1HoH4NOW-227" target="s3edlqQe-rxAXCFqVmzd-97">
          <mxGeometry relative="1" as="geometry">
            <Array as="points">
              <mxPoint x="1080" y="1080" />
            </Array>
          </mxGeometry>
        </mxCell>
        <mxCell id="NPe-8h-_CcpF1HoH4NOW-227" value="카테고리별&lt;br&gt;(상세검색페이지)" style="strokeWidth=2;html=1;shape=mxgraph.flowchart.display;whiteSpace=wrap;strokeColor=#FFD966;" parent="1" vertex="1">
          <mxGeometry x="1029.91" y="920" width="100" height="60" as="geometry" />
        </mxCell>
        <mxCell id="NPe-8h-_CcpF1HoH4NOW-243" value="" style="edgeStyle=orthogonalEdgeStyle;rounded=0;orthogonalLoop=1;jettySize=auto;html=1;exitX=0.5;exitY=1;exitDx=0;exitDy=0;exitPerimeter=0;" parent="1" source="NPe-8h-_CcpF1HoH4NOW-228" target="NPe-8h-_CcpF1HoH4NOW-242" edge="1">
          <mxGeometry relative="1" as="geometry">
            <mxPoint x="210" y="1890" as="sourcePoint" />
          </mxGeometry>
        </mxCell>
        <mxCell id="nD0UYpK1AcCFRPNusd-Y-38" value="" style="edgeStyle=orthogonalEdgeStyle;rounded=0;orthogonalLoop=1;jettySize=auto;html=1;entryX=1;entryY=0.5;entryDx=0;entryDy=0;" parent="1" target="nD0UYpK1AcCFRPNusd-Y-37" edge="1">
          <mxGeometry relative="1" as="geometry">
            <mxPoint x="210" y="1750" as="sourcePoint" />
            <Array as="points" />
          </mxGeometry>
        </mxCell>
        <mxCell id="nD0UYpK1AcCFRPNusd-Y-48" value="" style="edgeStyle=orthogonalEdgeStyle;rounded=0;orthogonalLoop=1;jettySize=auto;html=1;entryX=0.5;entryY=0;entryDx=0;entryDy=0;" parent="1" source="NPe-8h-_CcpF1HoH4NOW-228" target="nD0UYpK1AcCFRPNusd-Y-49" edge="1">
          <mxGeometry relative="1" as="geometry">
            <mxPoint x="90" y="1817.42" as="targetPoint" />
          </mxGeometry>
        </mxCell>
        <mxCell id="NPe-8h-_CcpF1HoH4NOW-228" value="제품 상세 페이지" style="strokeWidth=2;html=1;shape=mxgraph.flowchart.display;whiteSpace=wrap;strokeColor=#FFD966;" parent="1" vertex="1">
          <mxGeometry x="160" y="1787.42" width="100" height="60" as="geometry" />
        </mxCell>
        <mxCell id="NPe-8h-_CcpF1HoH4NOW-230" style="edgeStyle=orthogonalEdgeStyle;rounded=0;orthogonalLoop=1;jettySize=auto;html=1;exitX=0.5;exitY=1;exitDx=0;exitDy=0;exitPerimeter=0;entryX=0.5;entryY=0;entryDx=0;entryDy=0;entryPerimeter=0;" parent="1" target="NPe-8h-_CcpF1HoH4NOW-222" edge="1" source="NPe-8h-_CcpF1HoH4NOW-221">
          <mxGeometry relative="1" as="geometry">
            <mxPoint x="390" y="860" as="sourcePoint" />
            <Array as="points">
              <mxPoint x="-40" y="890" />
              <mxPoint x="210" y="890" />
            </Array>
            <mxPoint x="200" y="920" as="targetPoint" />
          </mxGeometry>
        </mxCell>
        <mxCell id="nD0UYpK1AcCFRPNusd-Y-43" value="" style="edgeStyle=orthogonalEdgeStyle;rounded=0;orthogonalLoop=1;jettySize=auto;html=1;" parent="1" target="nD0UYpK1AcCFRPNusd-Y-42" edge="1">
          <mxGeometry relative="1" as="geometry">
            <Array as="points">
              <mxPoint x="210" y="2440" />
              <mxPoint x="-10" y="2440" />
            </Array>
            <mxPoint x="210" y="2380" as="sourcePoint" />
          </mxGeometry>
        </mxCell>
        <mxCell id="nD0UYpK1AcCFRPNusd-Y-172" style="edgeStyle=orthogonalEdgeStyle;rounded=0;orthogonalLoop=1;jettySize=auto;html=1;" parent="1" target="nD0UYpK1AcCFRPNusd-Y-171" edge="1">
          <mxGeometry relative="1" as="geometry">
            <Array as="points">
              <mxPoint x="210" y="2440" />
              <mxPoint x="135" y="2440" />
            </Array>
            <mxPoint x="210" y="2380" as="sourcePoint" />
          </mxGeometry>
        </mxCell>
        <mxCell id="nD0UYpK1AcCFRPNusd-Y-299" style="edgeStyle=orthogonalEdgeStyle;rounded=0;orthogonalLoop=1;jettySize=auto;html=1;exitX=0.5;exitY=1;exitDx=0;exitDy=0;" parent="1" source="NPe-8h-_CcpF1HoH4NOW-242" target="nD0UYpK1AcCFRPNusd-Y-298" edge="1">
          <mxGeometry relative="1" as="geometry">
            <Array as="points">
              <mxPoint x="210" y="2440" />
              <mxPoint x="860" y="2440" />
            </Array>
            <mxPoint x="210.0588235294117" y="2410" as="sourcePoint" />
          </mxGeometry>
        </mxCell>
        <mxCell id="NPe-8h-_CcpF1HoH4NOW-242" value="&amp;nbsp;* Tab으로 구분&lt;br&gt;1. 상품 상세 내용&lt;br&gt;&amp;nbsp;- 제품 소개 (이미지 (갯수 미정)&lt;br style=&quot;border-color: var(--border-color);&quot;&gt;&amp;nbsp;- [상품 번호]&lt;br style=&quot;border-color: var(--border-color);&quot;&gt;&amp;nbsp;- 상품명&lt;br style=&quot;border-color: var(--border-color);&quot;&gt;&amp;nbsp;- 제조사&lt;br style=&quot;border-color: var(--border-color);&quot;&gt;&amp;nbsp;- 입고일&lt;br style=&quot;border-color: var(--border-color);&quot;&gt;&amp;nbsp;- 판매가 (할인된 금액&amp;nbsp;&lt;s style=&quot;border-color: var(--border-color); background-color: initial;&quot;&gt;금액&lt;/s&gt;&lt;span style=&quot;border-color: var(--border-color); background-color: initial;&quot;&gt;&amp;nbsp;)&lt;br style=&quot;border-color: var(--border-color);&quot;&gt;&amp;nbsp;- 할인율&lt;br style=&quot;border-color: var(--border-color);&quot;&gt;&amp;nbsp;- Point&lt;br style=&quot;border-color: var(--border-color);&quot;&gt;&amp;nbsp; (1% - 세부 비율은 회원 관리에서 ?)&lt;br style=&quot;border-color: var(--border-color);&quot;&gt;&amp;nbsp; (할인시에는 적립금 X)&lt;br style=&quot;border-color: var(--border-color);&quot;&gt;&amp;nbsp;- 관심상품(찜)&lt;br style=&quot;border-color: var(--border-color);&quot;&gt;&lt;/span&gt;&lt;span style=&quot;border-color: var(--border-color); background-color: initial;&quot;&gt;&amp;nbsp;* [재질], [생산지] ⇒ 크롤링 하면서 고민&lt;/span&gt;&lt;br&gt;&amp;nbsp;-&amp;nbsp;공유하기  (카카오 API 등)&lt;br&gt;&lt;span style=&quot;background-color: initial;&quot;&gt;&amp;nbsp;- 찜(관심) 상품 등록/취소&lt;br&gt;&lt;/span&gt;&lt;br&gt;* [관련 / 연관 상품]&lt;br&gt;&amp;nbsp;⇒ AI 연계가 아닌 경우 큰 의미가 없는 것으로 고려됨 &lt;span style=&quot;white-space: pre;&quot;&gt;&#x9;&lt;/span&gt;↔ &lt;span class=&quot;notion-enable-hover&quot; data-token-index=&quot;1&quot; style=&quot;color:rgba(55, 53, 47, 1)&quot;&gt;추천 상품 리스트 대체&lt;/span&gt;&lt;br&gt;&lt;br&gt;2. 상품 문의 (등록만)&lt;br&gt;&lt;br&gt;3. 리뷰 (목록 출력만)&lt;br&gt;&lt;br&gt;4. 주의 사항&lt;br style=&quot;border-color: var(--border-color);&quot;&gt;&amp;nbsp;- 구매 전 주의 사항&lt;br style=&quot;border-color: var(--border-color);&quot;&gt;&amp;nbsp;- 배송 안내&lt;br style=&quot;border-color: var(--border-color);&quot;&gt;&amp;nbsp;- 취소/교환/환불/예약 상품/기타 사항&lt;br&gt;&amp;nbsp;* [주의 사항 - 약관, 세부 내용은&amp;nbsp;크롤링하면서 고민]&lt;span style=&quot;border-color: var(--border-color);&quot;&gt;&lt;br&gt;&lt;/span&gt;" style="rounded=1;whiteSpace=wrap;html=1;absoluteArcSize=1;arcSize=14;strokeWidth=2;align=left;strokeColor=#009900;" parent="1" vertex="1">
          <mxGeometry x="60" y="1911" width="300" height="469" as="geometry" />
        </mxCell>
        <mxCell id="NPe-8h-_CcpF1HoH4NOW-244" value="장바구니" style="strokeWidth=2;html=1;shape=mxgraph.flowchart.start_1;whiteSpace=wrap;strokeColor=#FF0000;" parent="1" vertex="1">
          <mxGeometry x="380" y="2189.9999999999995" width="100" height="60" as="geometry" />
        </mxCell>
        <mxCell id="NPe-8h-_CcpF1HoH4NOW-245" value="결제" style="strokeWidth=2;html=1;shape=mxgraph.flowchart.start_1;whiteSpace=wrap;strokeColor=#FF0000;" parent="1" vertex="1">
          <mxGeometry x="505" y="2189.9999999999995" width="100" height="60" as="geometry" />
        </mxCell>
        <mxCell id="NPe-8h-_CcpF1HoH4NOW-246" style="edgeStyle=orthogonalEdgeStyle;rounded=0;orthogonalLoop=1;jettySize=auto;html=1;exitX=0.5;exitY=1;exitDx=0;exitDy=0;entryX=0.5;entryY=0;entryDx=0;entryDy=0;entryPerimeter=0;" parent="1" target="NPe-8h-_CcpF1HoH4NOW-244" edge="1" source="nD0UYpK1AcCFRPNusd-Y-168">
          <mxGeometry relative="1" as="geometry">
            <mxPoint x="510" y="2170" as="sourcePoint" />
            <mxPoint x="430" y="2230" as="targetPoint" />
            <Array as="points">
              <mxPoint x="490" y="2160" />
              <mxPoint x="430" y="2160" />
            </Array>
          </mxGeometry>
        </mxCell>
        <mxCell id="NPe-8h-_CcpF1HoH4NOW-247" style="edgeStyle=orthogonalEdgeStyle;rounded=0;orthogonalLoop=1;jettySize=auto;html=1;exitX=0.5;exitY=1;exitDx=0;exitDy=0;entryX=0.5;entryY=0;entryDx=0;entryDy=0;entryPerimeter=0;" parent="1" target="NPe-8h-_CcpF1HoH4NOW-245" edge="1" source="nD0UYpK1AcCFRPNusd-Y-168">
          <mxGeometry relative="1" as="geometry">
            <mxPoint x="470" y="2230.83" as="sourcePoint" />
            <Array as="points">
              <mxPoint x="490" y="2160" />
              <mxPoint x="555" y="2160" />
            </Array>
          </mxGeometry>
        </mxCell>
        <mxCell id="NPe-8h-_CcpF1HoH4NOW-261" value="" style="edgeStyle=orthogonalEdgeStyle;rounded=0;orthogonalLoop=1;jettySize=auto;html=1;" parent="1" source="NPe-8h-_CcpF1HoH4NOW-259" target="NPe-8h-_CcpF1HoH4NOW-140" edge="1">
          <mxGeometry relative="1" as="geometry" />
        </mxCell>
        <mxCell id="NPe-8h-_CcpF1HoH4NOW-259" value="상품 등록" style="strokeWidth=2;html=1;shape=mxgraph.flowchart.display;whiteSpace=wrap;strokeColor=#FFD966;" parent="1" vertex="1">
          <mxGeometry x="-791.73" y="-210" width="100" height="60" as="geometry" />
        </mxCell>
        <mxCell id="NPe-8h-_CcpF1HoH4NOW-262" value="아이콘 변경" style="rounded=1;whiteSpace=wrap;html=1;strokeWidth=2;strokeColor=#009900;" parent="1" vertex="1">
          <mxGeometry x="-384" y="2270.325" width="120" height="60" as="geometry" />
        </mxCell>
        <mxCell id="nD0UYpK1AcCFRPNusd-Y-9" value="" style="edgeStyle=orthogonalEdgeStyle;rounded=0;orthogonalLoop=1;jettySize=auto;html=1;exitX=0.5;exitY=1;exitDx=0;exitDy=0;exitPerimeter=0;entryX=0.5;entryY=1;entryDx=0;entryDy=0;entryPerimeter=0;" parent="1" source="nD0UYpK1AcCFRPNusd-Y-5" edge="1" target="NPe-8h-_CcpF1HoH4NOW-103">
          <mxGeometry relative="1" as="geometry">
            <mxPoint x="-420.06" y="288.5" as="sourcePoint" />
            <mxPoint x="-40" y="-10" as="targetPoint" />
            <Array as="points">
              <mxPoint x="-345" y="430" />
              <mxPoint x="-420" y="430" />
              <mxPoint x="-420" y="540" />
              <mxPoint x="-40" y="540" />
            </Array>
          </mxGeometry>
        </mxCell>
        <mxCell id="nD0UYpK1AcCFRPNusd-Y-31" value="내보내기" style="edgeLabel;html=1;align=center;verticalAlign=middle;resizable=0;points=[];" parent="nD0UYpK1AcCFRPNusd-Y-9" vertex="1" connectable="0">
          <mxGeometry x="-0.4677" relative="1" as="geometry">
            <mxPoint x="-68" y="-120" as="offset" />
          </mxGeometry>
        </mxCell>
        <mxCell id="nD0UYpK1AcCFRPNusd-Y-5" value="상품 DB" style="strokeWidth=2;html=1;shape=mxgraph.flowchart.database;whiteSpace=wrap;" parent="1" vertex="1">
          <mxGeometry x="-395.06" y="300" width="100" height="70" as="geometry" />
        </mxCell>
        <mxCell id="nD0UYpK1AcCFRPNusd-Y-6" value="변경 이력 DB" style="strokeWidth=2;html=1;shape=mxgraph.flowchart.database;whiteSpace=wrap;" parent="1" vertex="1">
          <mxGeometry x="-229.91" y="300" width="100" height="70" as="geometry" />
        </mxCell>
        <mxCell id="nD0UYpK1AcCFRPNusd-Y-10" value="- + 버튼을 누를 경우 추가 하는 창띄우기&lt;br&gt;- 모달 창 또는 팝업창으로 입력창 띄우기&amp;nbsp;" style="text;html=1;align=left;verticalAlign=middle;resizable=0;points=[];autosize=1;strokeColor=none;fillColor=none;" parent="1" vertex="1">
          <mxGeometry x="-686.73" y="-260" width="240" height="40" as="geometry" />
        </mxCell>
        <mxCell id="nD0UYpK1AcCFRPNusd-Y-14" value="수정" style="rounded=1;whiteSpace=wrap;html=1;absoluteArcSize=1;arcSize=14;strokeWidth=2;align=center;strokeColor=#009900;" parent="1" vertex="1">
          <mxGeometry x="-480.06" y="161.25" width="120" height="57.5" as="geometry" />
        </mxCell>
        <mxCell id="nD0UYpK1AcCFRPNusd-Y-22" value="" style="edgeStyle=orthogonalEdgeStyle;rounded=0;orthogonalLoop=1;jettySize=auto;html=1;" parent="1" source="nD0UYpK1AcCFRPNusd-Y-15" target="nD0UYpK1AcCFRPNusd-Y-14" edge="1">
          <mxGeometry relative="1" as="geometry" />
        </mxCell>
        <mxCell id="nD0UYpK1AcCFRPNusd-Y-15" value="수정할 정보 입력&lt;br&gt;&lt;br&gt;이미지&lt;br&gt;상품명&lt;br&gt;제조사&lt;br&gt;* 판매가&lt;br&gt;원가&lt;br&gt;*할인율&lt;br&gt;*입고 수량&lt;br&gt;카테고리 코드&lt;br&gt;상품 설명&lt;br&gt;상품 구분&lt;br&gt;(예약, 신규, 입고 완료)&amp;nbsp;" style="shape=parallelogram;html=1;strokeWidth=2;perimeter=parallelogramPerimeter;whiteSpace=wrap;rounded=1;arcSize=12;size=0.23;strokeColor=#009900;" parent="1" vertex="1">
          <mxGeometry x="-530" y="-150" width="219.88" height="220" as="geometry" />
        </mxCell>
        <mxCell id="nD0UYpK1AcCFRPNusd-Y-24" style="edgeStyle=orthogonalEdgeStyle;rounded=0;orthogonalLoop=1;jettySize=auto;html=1;entryX=0.5;entryY=1;entryDx=0;entryDy=0;entryPerimeter=0;exitX=0.5;exitY=1;exitDx=0;exitDy=0;exitPerimeter=0;" parent="1" source="NPe-8h-_CcpF1HoH4NOW-113" target="NPe-8h-_CcpF1HoH4NOW-103" edge="1">
          <mxGeometry relative="1" as="geometry">
            <Array as="points">
              <mxPoint x="-215.06" y="60" />
              <mxPoint x="-40.06" y="60" />
            </Array>
          </mxGeometry>
        </mxCell>
        <mxCell id="nD0UYpK1AcCFRPNusd-Y-25" value="NO" style="edgeLabel;html=1;align=center;verticalAlign=middle;resizable=0;points=[];" parent="nD0UYpK1AcCFRPNusd-Y-24" vertex="1" connectable="0">
          <mxGeometry x="-0.8215" y="-4" relative="1" as="geometry">
            <mxPoint x="89" y="29" as="offset" />
          </mxGeometry>
        </mxCell>
        <mxCell id="nD0UYpK1AcCFRPNusd-Y-26" style="edgeStyle=orthogonalEdgeStyle;rounded=0;orthogonalLoop=1;jettySize=auto;html=1;exitX=0.5;exitY=1;exitDx=0;exitDy=0;exitPerimeter=0;entryX=0.5;entryY=1;entryDx=0;entryDy=0;entryPerimeter=0;" parent="1" source="nD0UYpK1AcCFRPNusd-Y-81" edge="1" target="NPe-8h-_CcpF1HoH4NOW-103">
          <mxGeometry relative="1" as="geometry">
            <mxPoint x="335" y="475.8" as="sourcePoint" />
            <mxPoint x="-9.940000000000001" y="-145.61999999999998" as="targetPoint" />
            <Array as="points">
              <mxPoint x="230" y="480" />
              <mxPoint x="370" y="480" />
              <mxPoint x="370" y="540" />
              <mxPoint x="-40" y="540" />
            </Array>
          </mxGeometry>
        </mxCell>
        <mxCell id="nD0UYpK1AcCFRPNusd-Y-28" style="edgeStyle=orthogonalEdgeStyle;rounded=0;orthogonalLoop=1;jettySize=auto;html=1;exitX=0;exitY=0.5;exitDx=0;exitDy=0;exitPerimeter=0;entryX=0.5;entryY=1;entryDx=0;entryDy=0;entryPerimeter=0;" parent="1" source="NPe-8h-_CcpF1HoH4NOW-107" target="NPe-8h-_CcpF1HoH4NOW-103" edge="1">
          <mxGeometry relative="1" as="geometry" />
        </mxCell>
        <mxCell id="nD0UYpK1AcCFRPNusd-Y-29" value="NO" style="edgeLabel;html=1;align=center;verticalAlign=middle;resizable=0;points=[];" parent="nD0UYpK1AcCFRPNusd-Y-28" vertex="1" connectable="0">
          <mxGeometry x="-0.4632" relative="1" as="geometry">
            <mxPoint x="68" as="offset" />
          </mxGeometry>
        </mxCell>
        <mxCell id="nD0UYpK1AcCFRPNusd-Y-36" value="상품 DB" style="strokeWidth=2;html=1;shape=mxgraph.flowchart.database;whiteSpace=wrap;" parent="1" vertex="1">
          <mxGeometry x="-140" y="1715" width="100" height="70" as="geometry" />
        </mxCell>
        <mxCell id="nD0UYpK1AcCFRPNusd-Y-39" value="" style="edgeStyle=orthogonalEdgeStyle;rounded=0;orthogonalLoop=1;jettySize=auto;html=1;entryX=0.992;entryY=0.489;entryDx=0;entryDy=0;entryPerimeter=0;exitX=-0.008;exitY=0.499;exitDx=0;exitDy=0;exitPerimeter=0;" parent="1" source="nD0UYpK1AcCFRPNusd-Y-37" target="nD0UYpK1AcCFRPNusd-Y-36" edge="1">
          <mxGeometry relative="1" as="geometry">
            <mxPoint x="60" y="1760" as="sourcePoint" />
            <mxPoint x="-160" y="1760" as="targetPoint" />
            <Array as="points">
              <mxPoint x="-41" y="1750" />
            </Array>
          </mxGeometry>
        </mxCell>
        <mxCell id="nD0UYpK1AcCFRPNusd-Y-37" value="상품 조회수 증가" style="rounded=1;whiteSpace=wrap;html=1;absoluteArcSize=1;arcSize=14;strokeWidth=2;align=left;strokeColor=#009900;" parent="1" vertex="1">
          <mxGeometry x="40" y="1715" width="100" height="70" as="geometry" />
        </mxCell>
        <mxCell id="nD0UYpK1AcCFRPNusd-Y-40" value="모든 목록은 동일한 양식으로" style="text;html=1;align=center;verticalAlign=middle;resizable=0;points=[];autosize=1;strokeColor=none;fillColor=none;" parent="1" vertex="1">
          <mxGeometry x="-30" y="850" width="180" height="30" as="geometry" />
        </mxCell>
        <mxCell id="nD0UYpK1AcCFRPNusd-Y-42" value="상품 DB" style="strokeWidth=2;html=1;shape=mxgraph.flowchart.database;whiteSpace=wrap;" parent="1" vertex="1">
          <mxGeometry x="-60" y="2480" width="100" height="70" as="geometry" />
        </mxCell>
        <mxCell id="nD0UYpK1AcCFRPNusd-Y-45" style="edgeStyle=orthogonalEdgeStyle;rounded=0;orthogonalLoop=1;jettySize=auto;html=1;exitX=0.5;exitY=1;exitDx=0;exitDy=0;exitPerimeter=0;entryX=1;entryY=0.5;entryDx=0;entryDy=0;entryPerimeter=0;" parent="1" source="nD0UYpK1AcCFRPNusd-Y-42" target="NPe-8h-_CcpF1HoH4NOW-228" edge="1">
          <mxGeometry relative="1" as="geometry">
            <mxPoint x="100" y="1850" as="targetPoint" />
            <Array as="points">
              <mxPoint x="-10" y="2580" />
              <mxPoint x="430" y="2580" />
              <mxPoint x="430" y="2630" />
              <mxPoint x="940" y="2630" />
              <mxPoint x="940" y="1817" />
            </Array>
          </mxGeometry>
        </mxCell>
        <mxCell id="nD0UYpK1AcCFRPNusd-Y-162" style="edgeStyle=orthogonalEdgeStyle;rounded=0;orthogonalLoop=1;jettySize=auto;html=1;exitX=0.5;exitY=1;exitDx=0;exitDy=0;" parent="1" target="nD0UYpK1AcCFRPNusd-Y-139" edge="1">
          <mxGeometry relative="1" as="geometry">
            <mxPoint x="-864" y="1960" as="sourcePoint" />
          </mxGeometry>
        </mxCell>
        <mxCell id="nD0UYpK1AcCFRPNusd-Y-223" style="edgeStyle=orthogonalEdgeStyle;rounded=0;orthogonalLoop=1;jettySize=auto;html=1;exitX=0.5;exitY=1;exitDx=0;exitDy=0;entryX=0.5;entryY=0;entryDx=0;entryDy=0;" parent="1" target="nD0UYpK1AcCFRPNusd-Y-210" edge="1">
          <mxGeometry relative="1" as="geometry">
            <mxPoint x="-864" y="1960" as="sourcePoint" />
          </mxGeometry>
        </mxCell>
        <mxCell id="nD0UYpK1AcCFRPNusd-Y-49" value="평점 등록&lt;br style=&quot;border-color: var(--border-color);&quot;&gt;&lt;span style=&quot;border-color: var(--border-color);&quot;&gt;상품 문의&lt;/span&gt;&lt;br style=&quot;border-color: var(--border-color);&quot;&gt;&lt;span style=&quot;border-color: var(--border-color);&quot;&gt;찜/SNS 공유&lt;/span&gt;" style="rounded=1;whiteSpace=wrap;html=1;absoluteArcSize=1;arcSize=14;strokeWidth=2;align=center;strokeColor=#009900;" parent="1" vertex="1">
          <mxGeometry x="-780" y="1860" width="100" height="70" as="geometry" />
        </mxCell>
        <mxCell id="nD0UYpK1AcCFRPNusd-Y-85" style="edgeStyle=orthogonalEdgeStyle;rounded=0;orthogonalLoop=1;jettySize=auto;html=1;entryX=0.5;entryY=1;entryDx=0;entryDy=0;entryPerimeter=0;exitX=0.5;exitY=1;exitDx=0;exitDy=0;exitPerimeter=0;" parent="1" source="nD0UYpK1AcCFRPNusd-Y-79" target="NPe-8h-_CcpF1HoH4NOW-103" edge="1">
          <mxGeometry relative="1" as="geometry">
            <mxPoint x="-25.060000000000002" y="-1.5" as="targetPoint" />
            <mxPoint x="-560.0567845659166" y="302.25" as="sourcePoint" />
            <Array as="points">
              <mxPoint x="-500.06" y="430" />
              <mxPoint x="-420.06" y="430" />
              <mxPoint x="-420.06" y="540" />
              <mxPoint x="-40.06" y="540" />
            </Array>
          </mxGeometry>
        </mxCell>
        <mxCell id="nD0UYpK1AcCFRPNusd-Y-79" value="자료 저장 DB" style="strokeWidth=2;html=1;shape=mxgraph.flowchart.database;whiteSpace=wrap;" parent="1" vertex="1">
          <mxGeometry x="-550.06" y="300" width="100" height="70" as="geometry" />
        </mxCell>
        <mxCell id="nD0UYpK1AcCFRPNusd-Y-81" value="자료 저장 DB" style="strokeWidth=2;html=1;shape=mxgraph.flowchart.database;whiteSpace=wrap;" parent="1" vertex="1">
          <mxGeometry x="180" y="384.38" width="100" height="70" as="geometry" />
        </mxCell>
        <mxCell id="nD0UYpK1AcCFRPNusd-Y-83" style="edgeStyle=orthogonalEdgeStyle;rounded=0;orthogonalLoop=1;jettySize=auto;html=1;exitX=0.5;exitY=1;exitDx=0;exitDy=0;exitPerimeter=0;entryX=0.5;entryY=1;entryDx=0;entryDy=0;entryPerimeter=0;" parent="1" source="NPe-8h-_CcpF1HoH4NOW-112" target="NPe-8h-_CcpF1HoH4NOW-103" edge="1">
          <mxGeometry relative="1" as="geometry">
            <mxPoint x="240" y="453.63" as="sourcePoint" />
            <mxPoint x="-9.999999999999947" y="-145.61999999999998" as="targetPoint" />
            <Array as="points">
              <mxPoint x="100" y="480" />
              <mxPoint x="370" y="480" />
              <mxPoint x="370" y="540" />
              <mxPoint x="-40" y="540" />
            </Array>
          </mxGeometry>
        </mxCell>
        <mxCell id="nD0UYpK1AcCFRPNusd-Y-84" value="내보내기" style="edgeLabel;html=1;align=center;verticalAlign=middle;resizable=0;points=[];" parent="nD0UYpK1AcCFRPNusd-Y-83" vertex="1" connectable="0">
          <mxGeometry x="-0.8199" y="-2" relative="1" as="geometry">
            <mxPoint x="104" y="-12" as="offset" />
          </mxGeometry>
        </mxCell>
        <mxCell id="nD0UYpK1AcCFRPNusd-Y-118" style="edgeStyle=orthogonalEdgeStyle;rounded=0;orthogonalLoop=1;jettySize=auto;html=1;exitX=0.5;exitY=1;exitDx=0;exitDy=0;entryX=0.5;entryY=0;entryDx=0;entryDy=0;entryPerimeter=0;" parent="1" source="nD0UYpK1AcCFRPNusd-Y-14" target="nD0UYpK1AcCFRPNusd-Y-79" edge="1">
          <mxGeometry relative="1" as="geometry">
            <Array as="points">
              <mxPoint x="-420.06" y="250" />
              <mxPoint x="-500.06" y="250" />
            </Array>
          </mxGeometry>
        </mxCell>
        <mxCell id="nD0UYpK1AcCFRPNusd-Y-119" style="edgeStyle=orthogonalEdgeStyle;rounded=0;orthogonalLoop=1;jettySize=auto;html=1;exitX=0.5;exitY=1;exitDx=0;exitDy=0;exitPerimeter=0;entryX=1;entryY=0.5;entryDx=0;entryDy=0;entryPerimeter=0;endArrow=none;endFill=0;" parent="1" source="NPe-8h-_CcpF1HoH4NOW-104" target="NPe-8h-_CcpF1HoH4NOW-137" edge="1">
          <mxGeometry relative="1" as="geometry">
            <Array as="points">
              <mxPoint x="-40" y="-320" />
              <mxPoint x="-40" y="-270" />
            </Array>
          </mxGeometry>
        </mxCell>
        <mxCell id="nD0UYpK1AcCFRPNusd-Y-136" style="edgeStyle=orthogonalEdgeStyle;rounded=0;orthogonalLoop=1;jettySize=auto;html=1;exitX=0.5;exitY=1;exitDx=0;exitDy=0;exitPerimeter=0;entryX=1;entryY=0.5;entryDx=0;entryDy=0;entryPerimeter=0;" parent="1" source="NPe-8h-_CcpF1HoH4NOW-218" target="NPe-8h-_CcpF1HoH4NOW-228" edge="1">
          <mxGeometry relative="1" as="geometry">
            <Array as="points">
              <mxPoint x="-324" y="2630" />
              <mxPoint x="940" y="2630" />
              <mxPoint x="940" y="1818" />
            </Array>
          </mxGeometry>
        </mxCell>
        <mxCell id="nD0UYpK1AcCFRPNusd-Y-138" value="" style="edgeStyle=orthogonalEdgeStyle;rounded=0;orthogonalLoop=1;jettySize=auto;html=1;" parent="1" source="nD0UYpK1AcCFRPNusd-Y-139" target="nD0UYpK1AcCFRPNusd-Y-146" edge="1">
          <mxGeometry relative="1" as="geometry" />
        </mxCell>
        <mxCell id="nD0UYpK1AcCFRPNusd-Y-139" value="상품 문의" style="shape=parallelogram;html=1;strokeWidth=2;perimeter=parallelogramPerimeter;whiteSpace=wrap;rounded=1;arcSize=12;size=0.23;strokeColor=#009900;" parent="1" vertex="1">
          <mxGeometry x="-810" y="2038.83" width="160" height="60" as="geometry" />
        </mxCell>
        <mxCell id="nD0UYpK1AcCFRPNusd-Y-142" value="" style="edgeStyle=orthogonalEdgeStyle;rounded=0;orthogonalLoop=1;jettySize=auto;html=1;entryX=0.5;entryY=0;entryDx=0;entryDy=0;exitX=0.5;exitY=1;exitDx=0;exitDy=0;exitPerimeter=0;" parent="1" source="nD0UYpK1AcCFRPNusd-Y-146" target="nD0UYpK1AcCFRPNusd-Y-279" edge="1">
          <mxGeometry relative="1" as="geometry">
            <mxPoint x="-611" y="2188.5714285714284" as="sourcePoint" />
            <Array as="points">
              <mxPoint x="-730" y="2260" />
            </Array>
          </mxGeometry>
        </mxCell>
        <mxCell id="nD0UYpK1AcCFRPNusd-Y-143" value="등록" style="edgeLabel;html=1;align=center;verticalAlign=middle;resizable=0;points=[];" parent="nD0UYpK1AcCFRPNusd-Y-142" vertex="1" connectable="0">
          <mxGeometry x="-0.0668" y="-1" relative="1" as="geometry">
            <mxPoint x="-1" y="2" as="offset" />
          </mxGeometry>
        </mxCell>
        <mxCell id="nD0UYpK1AcCFRPNusd-Y-146" value="문의 등록&amp;nbsp;" style="strokeWidth=2;html=1;shape=mxgraph.flowchart.decision;whiteSpace=wrap;" parent="1" vertex="1">
          <mxGeometry x="-790" y="2158.08" width="120" height="60.75" as="geometry" />
        </mxCell>
        <mxCell id="nD0UYpK1AcCFRPNusd-Y-150" value="문의 등록" style="rounded=1;whiteSpace=wrap;html=1;absoluteArcSize=1;arcSize=14;strokeWidth=2;align=center;strokeColor=#009900;" parent="1" vertex="1">
          <mxGeometry x="-785" y="2390" width="110" height="60" as="geometry" />
        </mxCell>
        <mxCell id="nD0UYpK1AcCFRPNusd-Y-153" value="상품 문의 DB" style="strokeWidth=2;html=1;shape=mxgraph.flowchart.database;whiteSpace=wrap;" parent="1" vertex="1">
          <mxGeometry x="-780" y="2510" width="100" height="70" as="geometry" />
        </mxCell>
        <mxCell id="nD0UYpK1AcCFRPNusd-Y-163" style="edgeStyle=orthogonalEdgeStyle;rounded=0;orthogonalLoop=1;jettySize=auto;html=1;exitX=0.5;exitY=1;exitDx=0;exitDy=0;exitPerimeter=0;entryX=1;entryY=0.5;entryDx=0;entryDy=0;entryPerimeter=0;" parent="1" source="nD0UYpK1AcCFRPNusd-Y-153" target="NPe-8h-_CcpF1HoH4NOW-228" edge="1">
          <mxGeometry relative="1" as="geometry">
            <Array as="points">
              <mxPoint x="-730" y="2630" />
              <mxPoint x="940" y="2630" />
              <mxPoint x="940" y="1817" />
            </Array>
          </mxGeometry>
        </mxCell>
        <mxCell id="nD0UYpK1AcCFRPNusd-Y-169" value="" style="edgeStyle=orthogonalEdgeStyle;rounded=0;orthogonalLoop=1;jettySize=auto;html=1;" parent="1" source="nD0UYpK1AcCFRPNusd-Y-164" target="nD0UYpK1AcCFRPNusd-Y-168" edge="1">
          <mxGeometry relative="1" as="geometry" />
        </mxCell>
        <mxCell id="nD0UYpK1AcCFRPNusd-Y-164" value="제품 결제 부분" style="rounded=1;whiteSpace=wrap;html=1;absoluteArcSize=1;arcSize=14;strokeWidth=2;align=center;strokeColor=#009900;" parent="1" vertex="1">
          <mxGeometry x="440" y="1956" width="100" height="70" as="geometry" />
        </mxCell>
        <mxCell id="nD0UYpK1AcCFRPNusd-Y-168" value="수량 선택" style="shape=parallelogram;perimeter=parallelogramPerimeter;whiteSpace=wrap;html=1;fixedSize=1;align=center;strokeColor=#009900;rounded=1;arcSize=14;strokeWidth=2;" parent="1" vertex="1">
          <mxGeometry x="430" y="2070" width="120" height="60" as="geometry" />
        </mxCell>
        <mxCell id="nD0UYpK1AcCFRPNusd-Y-171" value="정책 관리 DB" style="strokeWidth=2;html=1;shape=mxgraph.flowchart.database;whiteSpace=wrap;" parent="1" vertex="1">
          <mxGeometry x="85" y="2480" width="100" height="70" as="geometry" />
        </mxCell>
        <mxCell id="nD0UYpK1AcCFRPNusd-Y-173" style="edgeStyle=orthogonalEdgeStyle;rounded=0;orthogonalLoop=1;jettySize=auto;html=1;entryX=1;entryY=0.5;entryDx=0;entryDy=0;entryPerimeter=0;exitX=0.5;exitY=1;exitDx=0;exitDy=0;exitPerimeter=0;" parent="1" source="nD0UYpK1AcCFRPNusd-Y-171" target="NPe-8h-_CcpF1HoH4NOW-228" edge="1">
          <mxGeometry relative="1" as="geometry">
            <Array as="points">
              <mxPoint x="135" y="2580" />
              <mxPoint x="430" y="2580" />
              <mxPoint x="430" y="2630" />
              <mxPoint x="940" y="2630" />
              <mxPoint x="940" y="1817" />
            </Array>
          </mxGeometry>
        </mxCell>
        <mxCell id="nD0UYpK1AcCFRPNusd-Y-175" value="상품 문의 DB" style="strokeWidth=2;html=1;shape=mxgraph.flowchart.database;whiteSpace=wrap;" parent="1" vertex="1">
          <mxGeometry x="230" y="2480" width="100" height="70" as="geometry" />
        </mxCell>
        <mxCell id="nD0UYpK1AcCFRPNusd-Y-176" style="edgeStyle=orthogonalEdgeStyle;rounded=0;orthogonalLoop=1;jettySize=auto;html=1;exitX=0.5;exitY=1;exitDx=0;exitDy=0;entryX=0.5;entryY=0;entryDx=0;entryDy=0;entryPerimeter=0;" parent="1" source="NPe-8h-_CcpF1HoH4NOW-242" target="nD0UYpK1AcCFRPNusd-Y-175" edge="1">
          <mxGeometry relative="1" as="geometry">
            <Array as="points">
              <mxPoint x="210" y="2440" />
              <mxPoint x="280" y="2440" />
            </Array>
            <mxPoint x="210" y="2410" as="sourcePoint" />
          </mxGeometry>
        </mxCell>
        <mxCell id="nD0UYpK1AcCFRPNusd-Y-177" style="edgeStyle=orthogonalEdgeStyle;rounded=0;orthogonalLoop=1;jettySize=auto;html=1;exitX=0.5;exitY=1;exitDx=0;exitDy=0;exitPerimeter=0;entryX=1;entryY=0.5;entryDx=0;entryDy=0;entryPerimeter=0;" parent="1" source="nD0UYpK1AcCFRPNusd-Y-175" target="NPe-8h-_CcpF1HoH4NOW-228" edge="1">
          <mxGeometry relative="1" as="geometry">
            <Array as="points">
              <mxPoint x="280" y="2580" />
              <mxPoint x="430" y="2580" />
              <mxPoint x="430" y="2630" />
              <mxPoint x="940" y="2630" />
              <mxPoint x="940" y="1817" />
            </Array>
          </mxGeometry>
        </mxCell>
        <mxCell id="nD0UYpK1AcCFRPNusd-Y-181" style="edgeStyle=orthogonalEdgeStyle;rounded=0;orthogonalLoop=1;jettySize=auto;html=1;exitX=0.5;exitY=1;exitDx=0;exitDy=0;exitPerimeter=0;entryX=1;entryY=0.5;entryDx=0;entryDy=0;entryPerimeter=0;" parent="1" source="nD0UYpK1AcCFRPNusd-Y-179" target="NPe-8h-_CcpF1HoH4NOW-228" edge="1">
          <mxGeometry relative="1" as="geometry">
            <mxPoint x="260" y="1820" as="targetPoint" />
            <Array as="points">
              <mxPoint x="430" y="2630" />
              <mxPoint x="940" y="2630" />
              <mxPoint x="940" y="1817" />
            </Array>
          </mxGeometry>
        </mxCell>
        <mxCell id="nD0UYpK1AcCFRPNusd-Y-179" value="리뷰 DB" style="strokeWidth=2;html=1;shape=mxgraph.flowchart.database;whiteSpace=wrap;" parent="1" vertex="1">
          <mxGeometry x="380" y="2480" width="100" height="70" as="geometry" />
        </mxCell>
        <mxCell id="nD0UYpK1AcCFRPNusd-Y-180" style="edgeStyle=orthogonalEdgeStyle;rounded=0;orthogonalLoop=1;jettySize=auto;html=1;exitX=0.5;exitY=1;exitDx=0;exitDy=0;entryX=0.5;entryY=0;entryDx=0;entryDy=0;entryPerimeter=0;" parent="1" source="NPe-8h-_CcpF1HoH4NOW-242" target="nD0UYpK1AcCFRPNusd-Y-179" edge="1">
          <mxGeometry relative="1" as="geometry">
            <Array as="points">
              <mxPoint x="210" y="2440" />
              <mxPoint x="425" y="2440" />
            </Array>
            <mxPoint x="210" y="2410" as="sourcePoint" />
          </mxGeometry>
        </mxCell>
        <mxCell id="nD0UYpK1AcCFRPNusd-Y-182" value="평점 관리 DB" style="strokeWidth=2;html=1;shape=mxgraph.flowchart.database;whiteSpace=wrap;" parent="1" vertex="1">
          <mxGeometry x="530" y="2480" width="100" height="70" as="geometry" />
        </mxCell>
        <mxCell id="nD0UYpK1AcCFRPNusd-Y-183" style="edgeStyle=orthogonalEdgeStyle;rounded=0;orthogonalLoop=1;jettySize=auto;html=1;exitX=0.5;exitY=1;exitDx=0;exitDy=0;entryX=0.5;entryY=0;entryDx=0;entryDy=0;entryPerimeter=0;" parent="1" source="NPe-8h-_CcpF1HoH4NOW-242" target="nD0UYpK1AcCFRPNusd-Y-182" edge="1">
          <mxGeometry relative="1" as="geometry">
            <Array as="points">
              <mxPoint x="210" y="2440" />
              <mxPoint x="580" y="2440" />
            </Array>
            <mxPoint x="210" y="2410" as="sourcePoint" />
          </mxGeometry>
        </mxCell>
        <mxCell id="nD0UYpK1AcCFRPNusd-Y-184" style="edgeStyle=orthogonalEdgeStyle;rounded=0;orthogonalLoop=1;jettySize=auto;html=1;exitX=0.5;exitY=1;exitDx=0;exitDy=0;exitPerimeter=0;entryX=1;entryY=0.5;entryDx=0;entryDy=0;entryPerimeter=0;" parent="1" source="nD0UYpK1AcCFRPNusd-Y-182" target="NPe-8h-_CcpF1HoH4NOW-228" edge="1">
          <mxGeometry relative="1" as="geometry">
            <Array as="points">
              <mxPoint x="580" y="2580" />
              <mxPoint x="430" y="2580" />
              <mxPoint x="430" y="2630" />
              <mxPoint x="940" y="2630" />
              <mxPoint x="940" y="1817" />
            </Array>
          </mxGeometry>
        </mxCell>
        <mxCell id="nD0UYpK1AcCFRPNusd-Y-209" value="" style="edgeStyle=orthogonalEdgeStyle;rounded=0;orthogonalLoop=1;jettySize=auto;html=1;" parent="1" source="nD0UYpK1AcCFRPNusd-Y-210" edge="1">
          <mxGeometry relative="1" as="geometry">
            <mxPoint x="-950" y="2158.08" as="targetPoint" />
          </mxGeometry>
        </mxCell>
        <mxCell id="nD0UYpK1AcCFRPNusd-Y-210" value="SNS 공유" style="shape=parallelogram;html=1;strokeWidth=2;perimeter=parallelogramPerimeter;whiteSpace=wrap;rounded=1;arcSize=12;size=0.23;strokeColor=#009900;" parent="1" vertex="1">
          <mxGeometry x="-1030" y="2038.83" width="160" height="60" as="geometry" />
        </mxCell>
        <mxCell id="nD0UYpK1AcCFRPNusd-Y-226" value="카카오 API" style="rounded=1;whiteSpace=wrap;html=1;absoluteArcSize=1;arcSize=14;strokeWidth=2;align=center;strokeColor=#009900;" parent="1" vertex="1">
          <mxGeometry x="-1005" y="2160.08" width="110" height="60" as="geometry" />
        </mxCell>
        <mxCell id="nD0UYpK1AcCFRPNusd-Y-228" style="edgeStyle=orthogonalEdgeStyle;rounded=0;orthogonalLoop=1;jettySize=auto;html=1;exitX=0.5;exitY=1;exitDx=0;exitDy=0;entryX=0.5;entryY=0;entryDx=0;entryDy=0;entryPerimeter=0;" parent="1" source="NPe-8h-_CcpF1HoH4NOW-108" target="nD0UYpK1AcCFRPNusd-Y-81" edge="1">
          <mxGeometry relative="1" as="geometry">
            <Array as="points">
              <mxPoint x="160" y="350" />
              <mxPoint x="230" y="350" />
            </Array>
          </mxGeometry>
        </mxCell>
        <mxCell id="nD0UYpK1AcCFRPNusd-Y-280" value="" style="edgeStyle=orthogonalEdgeStyle;rounded=0;orthogonalLoop=1;jettySize=auto;html=1;" parent="1" source="nD0UYpK1AcCFRPNusd-Y-279" target="nD0UYpK1AcCFRPNusd-Y-150" edge="1">
          <mxGeometry relative="1" as="geometry" />
        </mxCell>
        <mxCell id="nD0UYpK1AcCFRPNusd-Y-279" value="공개/ 비공개 선택" style="shape=parallelogram;html=1;strokeWidth=2;perimeter=parallelogramPerimeter;whiteSpace=wrap;rounded=1;arcSize=12;size=0.23;strokeColor=#009900;" parent="1" vertex="1">
          <mxGeometry x="-810" y="2260" width="160" height="60" as="geometry" />
        </mxCell>
        <mxCell id="nD0UYpK1AcCFRPNusd-Y-290" value="평점 관리 DB" style="strokeWidth=2;html=1;shape=mxgraph.flowchart.database;whiteSpace=wrap;" parent="1" vertex="1">
          <mxGeometry x="320" y="384.38" width="100" height="70" as="geometry" />
        </mxCell>
        <mxCell id="nD0UYpK1AcCFRPNusd-Y-291" style="edgeStyle=orthogonalEdgeStyle;rounded=0;orthogonalLoop=1;jettySize=auto;html=1;exitX=0.5;exitY=1;exitDx=0;exitDy=0;entryX=0.5;entryY=0;entryDx=0;entryDy=0;entryPerimeter=0;" parent="1" source="NPe-8h-_CcpF1HoH4NOW-108" target="nD0UYpK1AcCFRPNusd-Y-290" edge="1">
          <mxGeometry relative="1" as="geometry">
            <Array as="points">
              <mxPoint x="160" y="350" />
              <mxPoint x="370" y="350" />
            </Array>
          </mxGeometry>
        </mxCell>
        <mxCell id="nD0UYpK1AcCFRPNusd-Y-292" style="edgeStyle=orthogonalEdgeStyle;rounded=0;orthogonalLoop=1;jettySize=auto;html=1;exitX=0.5;exitY=1;exitDx=0;exitDy=0;exitPerimeter=0;entryX=0.5;entryY=1;entryDx=0;entryDy=0;entryPerimeter=0;" parent="1" source="nD0UYpK1AcCFRPNusd-Y-290" target="NPe-8h-_CcpF1HoH4NOW-103" edge="1">
          <mxGeometry relative="1" as="geometry">
            <Array as="points">
              <mxPoint x="370" y="540" />
              <mxPoint x="-40" y="540" />
            </Array>
            <mxPoint x="-9.999999999999947" y="-145.61999999999998" as="targetPoint" />
          </mxGeometry>
        </mxCell>
        <mxCell id="nD0UYpK1AcCFRPNusd-Y-293" value="찜 관리 DB" style="strokeWidth=2;html=1;shape=mxgraph.flowchart.database;whiteSpace=wrap;" parent="1" vertex="1">
          <mxGeometry x="670" y="2480" width="100" height="70" as="geometry" />
        </mxCell>
        <mxCell id="nD0UYpK1AcCFRPNusd-Y-294" style="edgeStyle=orthogonalEdgeStyle;rounded=0;orthogonalLoop=1;jettySize=auto;html=1;exitX=0.5;exitY=1;exitDx=0;exitDy=0;entryX=0.5;entryY=0;entryDx=0;entryDy=0;entryPerimeter=0;" parent="1" source="NPe-8h-_CcpF1HoH4NOW-242" target="nD0UYpK1AcCFRPNusd-Y-293" edge="1">
          <mxGeometry relative="1" as="geometry">
            <Array as="points">
              <mxPoint x="210" y="2440" />
              <mxPoint x="720" y="2440" />
            </Array>
            <mxPoint x="210" y="2410" as="sourcePoint" />
          </mxGeometry>
        </mxCell>
        <mxCell id="nD0UYpK1AcCFRPNusd-Y-295" style="edgeStyle=orthogonalEdgeStyle;rounded=0;orthogonalLoop=1;jettySize=auto;html=1;exitX=0.5;exitY=1;exitDx=0;exitDy=0;exitPerimeter=0;entryX=1;entryY=0.5;entryDx=0;entryDy=0;entryPerimeter=0;" parent="1" source="nD0UYpK1AcCFRPNusd-Y-293" target="NPe-8h-_CcpF1HoH4NOW-228" edge="1">
          <mxGeometry relative="1" as="geometry">
            <Array as="points">
              <mxPoint x="720" y="2580" />
              <mxPoint x="430" y="2580" />
              <mxPoint x="430" y="2630" />
              <mxPoint x="940" y="2630" />
              <mxPoint x="940" y="1817" />
            </Array>
          </mxGeometry>
        </mxCell>
        <mxCell id="nD0UYpK1AcCFRPNusd-Y-302" style="edgeStyle=orthogonalEdgeStyle;rounded=0;orthogonalLoop=1;jettySize=auto;html=1;entryX=0.5;entryY=1;entryDx=0;entryDy=0;entryPerimeter=0;" parent="1" source="nD0UYpK1AcCFRPNusd-Y-296" edge="1" target="NPe-8h-_CcpF1HoH4NOW-103">
          <mxGeometry relative="1" as="geometry">
            <mxPoint x="-9.999999999999947" y="-145.61999999999998" as="targetPoint" />
            <Array as="points">
              <mxPoint x="510" y="480" />
              <mxPoint x="370" y="480" />
              <mxPoint x="370" y="540" />
              <mxPoint x="-40" y="540" />
            </Array>
          </mxGeometry>
        </mxCell>
        <mxCell id="nD0UYpK1AcCFRPNusd-Y-296" value="카테고리 DB" style="strokeWidth=2;html=1;shape=mxgraph.flowchart.database;whiteSpace=wrap;" parent="1" vertex="1">
          <mxGeometry x="450.06" y="384.38" width="100" height="70" as="geometry" />
        </mxCell>
        <mxCell id="nD0UYpK1AcCFRPNusd-Y-298" value="카테고리 DB" style="strokeWidth=2;html=1;shape=mxgraph.flowchart.database;whiteSpace=wrap;" parent="1" vertex="1">
          <mxGeometry x="810" y="2480" width="100" height="70" as="geometry" />
        </mxCell>
        <mxCell id="nD0UYpK1AcCFRPNusd-Y-300" style="edgeStyle=orthogonalEdgeStyle;rounded=0;orthogonalLoop=1;jettySize=auto;html=1;entryX=1;entryY=0.5;entryDx=0;entryDy=0;entryPerimeter=0;" parent="1" source="nD0UYpK1AcCFRPNusd-Y-298" target="NPe-8h-_CcpF1HoH4NOW-228" edge="1">
          <mxGeometry relative="1" as="geometry">
            <Array as="points">
              <mxPoint x="860" y="2580" />
              <mxPoint x="430" y="2580" />
              <mxPoint x="430" y="2630" />
              <mxPoint x="940" y="2630" />
              <mxPoint x="940" y="1817" />
            </Array>
          </mxGeometry>
        </mxCell>
        <mxCell id="nD0UYpK1AcCFRPNusd-Y-301" style="edgeStyle=orthogonalEdgeStyle;rounded=0;orthogonalLoop=1;jettySize=auto;html=1;exitX=0.5;exitY=1;exitDx=0;exitDy=0;entryX=0.5;entryY=0;entryDx=0;entryDy=0;entryPerimeter=0;" parent="1" source="NPe-8h-_CcpF1HoH4NOW-108" target="nD0UYpK1AcCFRPNusd-Y-296" edge="1">
          <mxGeometry relative="1" as="geometry">
            <Array as="points">
              <mxPoint x="160" y="350" />
              <mxPoint x="510" y="350" />
              <mxPoint x="510" y="384" />
            </Array>
          </mxGeometry>
        </mxCell>
        <mxCell id="VHGo8KlSQgul_N68NuS0-2" value="&lt;span style=&quot;color: rgb(0, 0, 0); font-family: Helvetica; font-size: 12px; font-style: normal; font-variant-ligatures: normal; font-variant-caps: normal; font-weight: 400; letter-spacing: normal; orphans: 2; text-align: center; text-indent: 0px; text-transform: none; widows: 2; word-spacing: 0px; -webkit-text-stroke-width: 0px; background-color: rgb(255, 255, 255); text-decoration-thickness: initial; text-decoration-style: initial; text-decoration-color: initial; float: none; display: inline !important;&quot;&gt;내보내기&lt;/span&gt;" style="text;whiteSpace=wrap;html=1;" parent="1" vertex="1">
          <mxGeometry x="370" y="2600" width="80" height="40" as="geometry" />
        </mxCell>
        <mxCell id="VHGo8KlSQgul_N68NuS0-3" value="&lt;span style=&quot;color: rgb(0, 0, 0); font-family: Helvetica; font-size: 12px; font-style: normal; font-variant-ligatures: normal; font-variant-caps: normal; font-weight: 400; letter-spacing: normal; orphans: 2; text-align: center; text-indent: 0px; text-transform: none; widows: 2; word-spacing: 0px; -webkit-text-stroke-width: 0px; background-color: rgb(255, 255, 255); text-decoration-thickness: initial; text-decoration-style: initial; text-decoration-color: initial; float: none; display: inline !important;&quot;&gt;내보내기&lt;/span&gt;" style="text;whiteSpace=wrap;html=1;" parent="1" vertex="1">
          <mxGeometry x="-324" y="2600" width="80" height="40" as="geometry" />
        </mxCell>
        <mxCell id="VHGo8KlSQgul_N68NuS0-4" value="&lt;span style=&quot;color: rgb(0, 0, 0); font-family: Helvetica; font-size: 12px; font-style: normal; font-variant-ligatures: normal; font-variant-caps: normal; font-weight: 400; letter-spacing: normal; orphans: 2; text-align: center; text-indent: 0px; text-transform: none; widows: 2; word-spacing: 0px; -webkit-text-stroke-width: 0px; background-color: rgb(255, 255, 255); text-decoration-thickness: initial; text-decoration-style: initial; text-decoration-color: initial; float: none; display: inline !important;&quot;&gt;내보내기&lt;/span&gt;" style="text;whiteSpace=wrap;html=1;" parent="1" vertex="1">
          <mxGeometry x="-724" y="2600" width="80" height="40" as="geometry" />
        </mxCell>
        <mxCell id="s3edlqQe-rxAXCFqVmzd-3" value="" style="edgeStyle=orthogonalEdgeStyle;rounded=0;orthogonalLoop=1;jettySize=auto;html=1;exitX=0.5;exitY=1;exitDx=0;exitDy=0;entryX=0.5;entryY=0;entryDx=0;entryDy=0;entryPerimeter=0;" edge="1" parent="1" source="s3edlqQe-rxAXCFqVmzd-10" target="s3edlqQe-rxAXCFqVmzd-12">
          <mxGeometry relative="1" as="geometry">
            <mxPoint x="-716" y="1155.0500000000002" as="sourcePoint" />
            <mxPoint x="-1050" y="1432.42" as="targetPoint" />
            <Array as="points">
              <mxPoint x="-990" y="1400" />
              <mxPoint x="-1120" y="1400" />
            </Array>
          </mxGeometry>
        </mxCell>
        <mxCell id="s3edlqQe-rxAXCFqVmzd-4" value="조회" style="edgeLabel;html=1;align=center;verticalAlign=middle;resizable=0;points=[];" vertex="1" connectable="0" parent="s3edlqQe-rxAXCFqVmzd-3">
          <mxGeometry x="0.0356" y="-1" relative="1" as="geometry">
            <mxPoint x="40" y="-17" as="offset" />
          </mxGeometry>
        </mxCell>
        <mxCell id="s3edlqQe-rxAXCFqVmzd-5" value="" style="edgeStyle=orthogonalEdgeStyle;rounded=0;orthogonalLoop=1;jettySize=auto;html=1;" edge="1" parent="1" source="s3edlqQe-rxAXCFqVmzd-6" target="s3edlqQe-rxAXCFqVmzd-9">
          <mxGeometry relative="1" as="geometry" />
        </mxCell>
        <mxCell id="s3edlqQe-rxAXCFqVmzd-6" value="검색 정보 입력&lt;br&gt;[오름 / 내림]&lt;br&gt;&lt;br style=&quot;border-color: var(--border-color);&quot;&gt;- 제조사&lt;br&gt;- 상품명&lt;br&gt;- 가격순&lt;br&gt;- 등록일 순&lt;br&gt;(2주 ~ 3주 이내)&lt;br&gt;- 카테고리별" style="shape=parallelogram;html=1;strokeWidth=2;perimeter=parallelogramPerimeter;whiteSpace=wrap;rounded=1;arcSize=12;size=0.23;strokeColor=#009900;" vertex="1" parent="1">
          <mxGeometry x="-1070" y="1000" width="160" height="160" as="geometry" />
        </mxCell>
        <mxCell id="s3edlqQe-rxAXCFqVmzd-7" value="" style="edgeStyle=orthogonalEdgeStyle;rounded=0;orthogonalLoop=1;jettySize=auto;html=1;" edge="1" parent="1" source="s3edlqQe-rxAXCFqVmzd-9" target="s3edlqQe-rxAXCFqVmzd-10">
          <mxGeometry relative="1" as="geometry" />
        </mxCell>
        <mxCell id="s3edlqQe-rxAXCFqVmzd-8" value="YES" style="edgeLabel;html=1;align=center;verticalAlign=middle;resizable=0;points=[];" vertex="1" connectable="0" parent="s3edlqQe-rxAXCFqVmzd-7">
          <mxGeometry x="-0.43" relative="1" as="geometry">
            <mxPoint y="6" as="offset" />
          </mxGeometry>
        </mxCell>
        <mxCell id="s3edlqQe-rxAXCFqVmzd-9" value="상품 정보 검색" style="strokeWidth=2;html=1;shape=mxgraph.flowchart.decision;whiteSpace=wrap;" vertex="1" parent="1">
          <mxGeometry x="-1050" y="1200.0000000000002" width="120" height="60.75" as="geometry" />
        </mxCell>
        <mxCell id="s3edlqQe-rxAXCFqVmzd-10" value="검색" style="rounded=1;whiteSpace=wrap;html=1;absoluteArcSize=1;arcSize=14;strokeWidth=2;align=center;strokeColor=#009900;" vertex="1" parent="1">
          <mxGeometry x="-1050" y="1310" width="120" height="40" as="geometry" />
        </mxCell>
        <mxCell id="s3edlqQe-rxAXCFqVmzd-11" style="edgeStyle=orthogonalEdgeStyle;rounded=0;orthogonalLoop=1;jettySize=auto;html=1;" edge="1" parent="1" source="s3edlqQe-rxAXCFqVmzd-12">
          <mxGeometry relative="1" as="geometry">
            <mxPoint x="-830" y="950" as="targetPoint" />
            <Array as="points">
              <mxPoint x="-1110" y="1540" />
              <mxPoint x="-990" y="1540" />
              <mxPoint x="-990" y="1580" />
              <mxPoint x="-1210" y="1580" />
              <mxPoint x="-1210" y="950" />
            </Array>
          </mxGeometry>
        </mxCell>
        <mxCell id="s3edlqQe-rxAXCFqVmzd-12" value="상품 DB" style="strokeWidth=2;html=1;shape=mxgraph.flowchart.database;whiteSpace=wrap;" vertex="1" parent="1">
          <mxGeometry x="-1170" y="1432.4200000000003" width="100" height="70" as="geometry" />
        </mxCell>
        <mxCell id="s3edlqQe-rxAXCFqVmzd-13" style="edgeStyle=orthogonalEdgeStyle;rounded=0;orthogonalLoop=1;jettySize=auto;html=1;entryX=0;entryY=0.5;entryDx=0;entryDy=0;entryPerimeter=0;exitX=0.5;exitY=1;exitDx=0;exitDy=0;exitPerimeter=0;" edge="1" parent="1" source="s3edlqQe-rxAXCFqVmzd-125" target="NPe-8h-_CcpF1HoH4NOW-226">
          <mxGeometry relative="1" as="geometry">
            <mxPoint x="-900" y="950" as="targetPoint" />
            <Array as="points">
              <mxPoint x="-850" y="1540" />
              <mxPoint x="-990" y="1540" />
              <mxPoint x="-990" y="1580" />
              <mxPoint x="-1210" y="1580" />
              <mxPoint x="-1210" y="950" />
            </Array>
          </mxGeometry>
        </mxCell>
        <mxCell id="s3edlqQe-rxAXCFqVmzd-14" value="자료 저장 DB" style="strokeWidth=2;html=1;shape=mxgraph.flowchart.database;whiteSpace=wrap;" vertex="1" parent="1">
          <mxGeometry x="-1040" y="1432.4200000000003" width="100" height="70" as="geometry" />
        </mxCell>
        <mxCell id="s3edlqQe-rxAXCFqVmzd-15" style="edgeStyle=orthogonalEdgeStyle;rounded=0;orthogonalLoop=1;jettySize=auto;html=1;entryX=0.5;entryY=0;entryDx=0;entryDy=0;entryPerimeter=0;exitX=0.5;exitY=1;exitDx=0;exitDy=0;" edge="1" parent="1" source="s3edlqQe-rxAXCFqVmzd-10" target="s3edlqQe-rxAXCFqVmzd-125">
          <mxGeometry relative="1" as="geometry">
            <mxPoint x="-920" y="1432.42" as="targetPoint" />
            <Array as="points">
              <mxPoint x="-990" y="1400" />
              <mxPoint x="-860" y="1400" />
            </Array>
          </mxGeometry>
        </mxCell>
        <mxCell id="s3edlqQe-rxAXCFqVmzd-17" value="내보내기" style="text;html=1;align=center;verticalAlign=middle;resizable=0;points=[];autosize=1;strokeColor=none;fillColor=none;" vertex="1" parent="1">
          <mxGeometry x="-1050" y="1518" width="70" height="30" as="geometry" />
        </mxCell>
        <mxCell id="s3edlqQe-rxAXCFqVmzd-48" value="" style="edgeStyle=orthogonalEdgeStyle;rounded=0;orthogonalLoop=1;jettySize=auto;html=1;exitX=0.5;exitY=1;exitDx=0;exitDy=0;" edge="1" source="s3edlqQe-rxAXCFqVmzd-55" target="s3edlqQe-rxAXCFqVmzd-127" parent="1">
          <mxGeometry relative="1" as="geometry">
            <mxPoint x="-215.91" y="1155.0500000000002" as="sourcePoint" />
            <mxPoint x="-549.9099999999999" y="1432.42" as="targetPoint" />
            <Array as="points">
              <mxPoint x="-490" y="1386" />
              <mxPoint x="-620" y="1386" />
            </Array>
          </mxGeometry>
        </mxCell>
        <mxCell id="s3edlqQe-rxAXCFqVmzd-50" value="" style="edgeStyle=orthogonalEdgeStyle;rounded=0;orthogonalLoop=1;jettySize=auto;html=1;" edge="1" source="s3edlqQe-rxAXCFqVmzd-51" target="s3edlqQe-rxAXCFqVmzd-54" parent="1">
          <mxGeometry relative="1" as="geometry" />
        </mxCell>
        <mxCell id="s3edlqQe-rxAXCFqVmzd-51" value="검색 정보 입력&lt;br&gt;[오름 / 내림]&lt;br&gt;&lt;br&gt;제조사&lt;br&gt;상품명&lt;br&gt;가격순&lt;br&gt;할인율&lt;br&gt;&amp;nbsp;(등록일/입고 예정일)&lt;br&gt;(카테고리별)" style="shape=parallelogram;html=1;strokeWidth=2;perimeter=parallelogramPerimeter;whiteSpace=wrap;rounded=1;arcSize=12;size=0.23;strokeColor=#009900;" vertex="1" parent="1">
          <mxGeometry x="-569.91" y="1000" width="160" height="160" as="geometry" />
        </mxCell>
        <mxCell id="s3edlqQe-rxAXCFqVmzd-52" value="" style="edgeStyle=orthogonalEdgeStyle;rounded=0;orthogonalLoop=1;jettySize=auto;html=1;" edge="1" source="s3edlqQe-rxAXCFqVmzd-54" target="s3edlqQe-rxAXCFqVmzd-55" parent="1">
          <mxGeometry relative="1" as="geometry" />
        </mxCell>
        <mxCell id="s3edlqQe-rxAXCFqVmzd-53" value="YES" style="edgeLabel;html=1;align=center;verticalAlign=middle;resizable=0;points=[];" vertex="1" connectable="0" parent="s3edlqQe-rxAXCFqVmzd-52">
          <mxGeometry x="-0.43" relative="1" as="geometry">
            <mxPoint y="6" as="offset" />
          </mxGeometry>
        </mxCell>
        <mxCell id="s3edlqQe-rxAXCFqVmzd-54" value="상품 정보 검색" style="strokeWidth=2;html=1;shape=mxgraph.flowchart.decision;whiteSpace=wrap;" vertex="1" parent="1">
          <mxGeometry x="-549.91" y="1200.0000000000002" width="120" height="60.75" as="geometry" />
        </mxCell>
        <mxCell id="s3edlqQe-rxAXCFqVmzd-55" value="검색" style="rounded=1;whiteSpace=wrap;html=1;absoluteArcSize=1;arcSize=14;strokeWidth=2;align=center;strokeColor=#009900;" vertex="1" parent="1">
          <mxGeometry x="-550" y="1300" width="120" height="40" as="geometry" />
        </mxCell>
        <mxCell id="s3edlqQe-rxAXCFqVmzd-56" style="edgeStyle=orthogonalEdgeStyle;rounded=0;orthogonalLoop=1;jettySize=auto;html=1;entryX=0;entryY=0.5;entryDx=0;entryDy=0;entryPerimeter=0;exitX=0.5;exitY=1;exitDx=0;exitDy=0;exitPerimeter=0;" edge="1" source="s3edlqQe-rxAXCFqVmzd-127" parent="1" target="NPe-8h-_CcpF1HoH4NOW-224">
          <mxGeometry relative="1" as="geometry">
            <mxPoint x="-329.90999999999997" y="1130" as="targetPoint" />
            <Array as="points">
              <mxPoint x="-620" y="1540" />
              <mxPoint x="-490" y="1540" />
              <mxPoint x="-490" y="1580" />
              <mxPoint x="-710" y="1580" />
              <mxPoint x="-710" y="950" />
            </Array>
            <mxPoint x="-549.9411764705883" y="1502.42" as="sourcePoint" />
          </mxGeometry>
        </mxCell>
        <mxCell id="s3edlqQe-rxAXCFqVmzd-58" style="edgeStyle=orthogonalEdgeStyle;rounded=0;orthogonalLoop=1;jettySize=auto;html=1;exitX=0.5;exitY=1;exitDx=0;exitDy=0;exitPerimeter=0;" edge="1" source="s3edlqQe-rxAXCFqVmzd-130" parent="1">
          <mxGeometry relative="1" as="geometry">
            <mxPoint x="-340" y="950" as="targetPoint" />
            <Array as="points">
              <mxPoint x="-360" y="1540" />
              <mxPoint x="-490" y="1540" />
              <mxPoint x="-490" y="1580" />
              <mxPoint x="-710" y="1580" />
              <mxPoint x="-710" y="950" />
            </Array>
            <mxPoint x="-480.0011764705883" y="1502.42" as="sourcePoint" />
          </mxGeometry>
        </mxCell>
        <mxCell id="s3edlqQe-rxAXCFqVmzd-60" style="edgeStyle=orthogonalEdgeStyle;rounded=0;orthogonalLoop=1;jettySize=auto;html=1;exitX=0.5;exitY=1;exitDx=0;exitDy=0;entryX=0.5;entryY=0;entryDx=0;entryDy=0;entryPerimeter=0;" edge="1" source="s3edlqQe-rxAXCFqVmzd-55" target="s3edlqQe-rxAXCFqVmzd-130" parent="1">
          <mxGeometry relative="1" as="geometry">
            <mxPoint x="-419.90999999999985" y="1432.42" as="targetPoint" />
            <Array as="points">
              <mxPoint x="-490" y="1386" />
              <mxPoint x="-360" y="1386" />
            </Array>
          </mxGeometry>
        </mxCell>
        <mxCell id="s3edlqQe-rxAXCFqVmzd-62" value="내보내기" style="text;html=1;align=center;verticalAlign=middle;resizable=0;points=[];autosize=1;strokeColor=none;fillColor=none;" vertex="1" parent="1">
          <mxGeometry x="-524.91" y="1518" width="70" height="30" as="geometry" />
        </mxCell>
        <mxCell id="s3edlqQe-rxAXCFqVmzd-78" value="" style="edgeStyle=orthogonalEdgeStyle;rounded=0;orthogonalLoop=1;jettySize=auto;html=1;exitX=0.5;exitY=1;exitDx=0;exitDy=0;entryX=0.5;entryY=0;entryDx=0;entryDy=0;entryPerimeter=0;" edge="1" source="s3edlqQe-rxAXCFqVmzd-85" target="s3edlqQe-rxAXCFqVmzd-135" parent="1">
          <mxGeometry relative="1" as="geometry">
            <mxPoint x="213.94" y="1155.0500000000002" as="sourcePoint" />
            <mxPoint x="-120.05999999999995" y="1432.42" as="targetPoint" />
            <Array as="points">
              <mxPoint x="-10" y="1386" />
              <mxPoint x="-139" y="1386" />
            </Array>
          </mxGeometry>
        </mxCell>
        <mxCell id="s3edlqQe-rxAXCFqVmzd-79" value="조회" style="edgeLabel;html=1;align=center;verticalAlign=middle;resizable=0;points=[];" vertex="1" connectable="0" parent="s3edlqQe-rxAXCFqVmzd-78">
          <mxGeometry x="0.0356" y="-1" relative="1" as="geometry">
            <mxPoint x="12" y="-13" as="offset" />
          </mxGeometry>
        </mxCell>
        <mxCell id="s3edlqQe-rxAXCFqVmzd-80" value="" style="edgeStyle=orthogonalEdgeStyle;rounded=0;orthogonalLoop=1;jettySize=auto;html=1;" edge="1" source="s3edlqQe-rxAXCFqVmzd-81" target="s3edlqQe-rxAXCFqVmzd-84" parent="1">
          <mxGeometry relative="1" as="geometry" />
        </mxCell>
        <mxCell id="s3edlqQe-rxAXCFqVmzd-81" value="검색 정보 입력&lt;br&gt;[오름 / 내림]&lt;br&gt;&lt;br style=&quot;border-color: var(--border-color);&quot;&gt;- 제조사&lt;br style=&quot;border-color: var(--border-color);&quot;&gt;- 상품명&lt;br style=&quot;border-color: var(--border-color);&quot;&gt;- 가격순&lt;br style=&quot;border-color: var(--border-color);&quot;&gt;- 할인율&lt;br style=&quot;border-color: var(--border-color);&quot;&gt;(등록일 순)&lt;br style=&quot;border-color: var(--border-color);&quot;&gt;(카테고리별)" style="shape=parallelogram;html=1;strokeWidth=2;perimeter=parallelogramPerimeter;whiteSpace=wrap;rounded=1;arcSize=12;size=0.23;strokeColor=#009900;" vertex="1" parent="1">
          <mxGeometry x="-90" y="1000" width="160" height="160" as="geometry" />
        </mxCell>
        <mxCell id="s3edlqQe-rxAXCFqVmzd-82" value="" style="edgeStyle=orthogonalEdgeStyle;rounded=0;orthogonalLoop=1;jettySize=auto;html=1;" edge="1" source="s3edlqQe-rxAXCFqVmzd-84" target="s3edlqQe-rxAXCFqVmzd-85" parent="1">
          <mxGeometry relative="1" as="geometry" />
        </mxCell>
        <mxCell id="s3edlqQe-rxAXCFqVmzd-83" value="YES" style="edgeLabel;html=1;align=center;verticalAlign=middle;resizable=0;points=[];" vertex="1" connectable="0" parent="s3edlqQe-rxAXCFqVmzd-82">
          <mxGeometry x="-0.43" relative="1" as="geometry">
            <mxPoint y="6" as="offset" />
          </mxGeometry>
        </mxCell>
        <mxCell id="s3edlqQe-rxAXCFqVmzd-84" value="상품 정보 검색" style="strokeWidth=2;html=1;shape=mxgraph.flowchart.decision;whiteSpace=wrap;" vertex="1" parent="1">
          <mxGeometry x="-70" y="1200.0000000000002" width="120" height="60.75" as="geometry" />
        </mxCell>
        <mxCell id="s3edlqQe-rxAXCFqVmzd-138" style="edgeStyle=orthogonalEdgeStyle;rounded=0;orthogonalLoop=1;jettySize=auto;html=1;" edge="1" parent="1" source="s3edlqQe-rxAXCFqVmzd-85" target="s3edlqQe-rxAXCFqVmzd-136">
          <mxGeometry relative="1" as="geometry">
            <Array as="points">
              <mxPoint x="-10" y="1410" />
              <mxPoint x="-10" y="1410" />
            </Array>
          </mxGeometry>
        </mxCell>
        <mxCell id="s3edlqQe-rxAXCFqVmzd-85" value="검색" style="rounded=1;whiteSpace=wrap;html=1;absoluteArcSize=1;arcSize=14;strokeWidth=2;align=center;strokeColor=#009900;" vertex="1" parent="1">
          <mxGeometry x="-70" y="1300" width="120" height="40" as="geometry" />
        </mxCell>
        <mxCell id="s3edlqQe-rxAXCFqVmzd-86" style="edgeStyle=orthogonalEdgeStyle;rounded=0;orthogonalLoop=1;jettySize=auto;html=1;entryX=0;entryY=0.5;entryDx=0;entryDy=0;entryPerimeter=0;exitX=0.5;exitY=1;exitDx=0;exitDy=0;exitPerimeter=0;" edge="1" source="s3edlqQe-rxAXCFqVmzd-135" parent="1">
          <mxGeometry relative="1" as="geometry">
            <mxPoint x="151" y="950" as="targetPoint" />
            <Array as="points">
              <mxPoint x="-139" y="1540" />
              <mxPoint x="-9" y="1540" />
              <mxPoint x="-9" y="1580" />
              <mxPoint x="-219" y="1580" />
              <mxPoint x="-219" y="950" />
            </Array>
            <mxPoint x="-138.00000000000023" y="1502.42" as="sourcePoint" />
          </mxGeometry>
        </mxCell>
        <mxCell id="s3edlqQe-rxAXCFqVmzd-88" style="edgeStyle=orthogonalEdgeStyle;rounded=0;orthogonalLoop=1;jettySize=auto;html=1;entryX=0;entryY=0.5;entryDx=0;entryDy=0;entryPerimeter=0;exitX=0.486;exitY=1.007;exitDx=0;exitDy=0;exitPerimeter=0;" edge="1" source="s3edlqQe-rxAXCFqVmzd-137" parent="1">
          <mxGeometry relative="1" as="geometry">
            <mxPoint x="151" y="950" as="targetPoint" />
            <Array as="points">
              <mxPoint x="120" y="1540" />
              <mxPoint x="-9" y="1540" />
              <mxPoint x="-9" y="1580" />
              <mxPoint x="-219" y="1580" />
              <mxPoint x="-219" y="950" />
            </Array>
            <mxPoint x="122" y="1502.42" as="sourcePoint" />
          </mxGeometry>
        </mxCell>
        <mxCell id="s3edlqQe-rxAXCFqVmzd-90" style="edgeStyle=orthogonalEdgeStyle;rounded=0;orthogonalLoop=1;jettySize=auto;html=1;exitX=0.5;exitY=1;exitDx=0;exitDy=0;" edge="1" source="s3edlqQe-rxAXCFqVmzd-85" target="s3edlqQe-rxAXCFqVmzd-137" parent="1">
          <mxGeometry relative="1" as="geometry">
            <mxPoint x="9.940000000000055" y="1432.42" as="targetPoint" />
            <Array as="points">
              <mxPoint x="-10" y="1386" />
              <mxPoint x="120" y="1386" />
            </Array>
          </mxGeometry>
        </mxCell>
        <mxCell id="s3edlqQe-rxAXCFqVmzd-92" value="내보내기" style="text;html=1;align=center;verticalAlign=middle;resizable=0;points=[];autosize=1;strokeColor=none;fillColor=none;" vertex="1" parent="1">
          <mxGeometry x="-95.06" y="1518" width="70" height="30" as="geometry" />
        </mxCell>
        <mxCell id="s3edlqQe-rxAXCFqVmzd-94" value="" style="edgeStyle=orthogonalEdgeStyle;rounded=0;orthogonalLoop=1;jettySize=auto;html=1;exitX=0.5;exitY=1;exitDx=0;exitDy=0;entryX=0.5;entryY=0;entryDx=0;entryDy=0;entryPerimeter=0;" edge="1" source="s3edlqQe-rxAXCFqVmzd-101" target="s3edlqQe-rxAXCFqVmzd-141" parent="1">
          <mxGeometry relative="1" as="geometry">
            <mxPoint x="1146.94" y="1155.0500000000002" as="sourcePoint" />
            <mxPoint x="812.9400000000003" y="1432.42" as="targetPoint" />
          </mxGeometry>
        </mxCell>
        <mxCell id="s3edlqQe-rxAXCFqVmzd-95" value="조회" style="edgeLabel;html=1;align=center;verticalAlign=middle;resizable=0;points=[];" vertex="1" connectable="0" parent="s3edlqQe-rxAXCFqVmzd-94">
          <mxGeometry x="0.0356" y="-1" relative="1" as="geometry">
            <mxPoint x="12" y="-13" as="offset" />
          </mxGeometry>
        </mxCell>
        <mxCell id="s3edlqQe-rxAXCFqVmzd-96" value="" style="edgeStyle=orthogonalEdgeStyle;rounded=0;orthogonalLoop=1;jettySize=auto;html=1;" edge="1" source="s3edlqQe-rxAXCFqVmzd-97" target="s3edlqQe-rxAXCFqVmzd-100" parent="1">
          <mxGeometry relative="1" as="geometry" />
        </mxCell>
        <mxCell id="s3edlqQe-rxAXCFqVmzd-97" value="검색 정보 입력&lt;br&gt;[오름 / 내림]&lt;br&gt;&lt;br&gt;제조사&lt;br&gt;상품명&lt;br&gt;가격순&lt;br&gt;등록일 순&lt;br&gt;세부 카테고리별&lt;br&gt;&amp;nbsp;(대.중.소 분류)&lt;br&gt;[상품번호]" style="shape=parallelogram;html=1;strokeWidth=2;perimeter=parallelogramPerimeter;whiteSpace=wrap;rounded=1;arcSize=12;size=0.23;strokeColor=#009900;" vertex="1" parent="1">
          <mxGeometry x="792.94" y="1000" width="160" height="160" as="geometry" />
        </mxCell>
        <mxCell id="s3edlqQe-rxAXCFqVmzd-98" value="" style="edgeStyle=orthogonalEdgeStyle;rounded=0;orthogonalLoop=1;jettySize=auto;html=1;" edge="1" source="s3edlqQe-rxAXCFqVmzd-100" target="s3edlqQe-rxAXCFqVmzd-101" parent="1">
          <mxGeometry relative="1" as="geometry" />
        </mxCell>
        <mxCell id="s3edlqQe-rxAXCFqVmzd-99" value="YES" style="edgeLabel;html=1;align=center;verticalAlign=middle;resizable=0;points=[];" vertex="1" connectable="0" parent="s3edlqQe-rxAXCFqVmzd-98">
          <mxGeometry x="-0.43" relative="1" as="geometry">
            <mxPoint y="6" as="offset" />
          </mxGeometry>
        </mxCell>
        <mxCell id="s3edlqQe-rxAXCFqVmzd-100" value="상품 정보 검색" style="strokeWidth=2;html=1;shape=mxgraph.flowchart.decision;whiteSpace=wrap;" vertex="1" parent="1">
          <mxGeometry x="812.94" y="1190.0000000000002" width="120" height="60.75" as="geometry" />
        </mxCell>
        <mxCell id="s3edlqQe-rxAXCFqVmzd-144" style="edgeStyle=orthogonalEdgeStyle;rounded=0;orthogonalLoop=1;jettySize=auto;html=1;entryX=0.5;entryY=0;entryDx=0;entryDy=0;entryPerimeter=0;" edge="1" parent="1" target="s3edlqQe-rxAXCFqVmzd-142">
          <mxGeometry relative="1" as="geometry">
            <mxPoint x="872" y="1432.42" as="targetPoint" />
            <mxPoint x="873" y="1340.0000000000005" as="sourcePoint" />
            <Array as="points">
              <mxPoint x="873" y="1390" />
              <mxPoint x="873" y="1390" />
            </Array>
          </mxGeometry>
        </mxCell>
        <mxCell id="s3edlqQe-rxAXCFqVmzd-101" value="검색&amp;nbsp;" style="rounded=1;whiteSpace=wrap;html=1;absoluteArcSize=1;arcSize=14;strokeWidth=2;align=center;strokeColor=#009900;" vertex="1" parent="1">
          <mxGeometry x="813.03" y="1290" width="120" height="50" as="geometry" />
        </mxCell>
        <mxCell id="s3edlqQe-rxAXCFqVmzd-102" style="edgeStyle=orthogonalEdgeStyle;rounded=0;orthogonalLoop=1;jettySize=auto;html=1;exitX=0.5;exitY=1;exitDx=0;exitDy=0;exitPerimeter=0;" edge="1" source="s3edlqQe-rxAXCFqVmzd-141" parent="1">
          <mxGeometry relative="1" as="geometry">
            <mxPoint x="1030" y="950" as="targetPoint" />
            <Array as="points">
              <mxPoint x="743" y="1540" />
              <mxPoint x="873" y="1540" />
              <mxPoint x="873" y="1580" />
              <mxPoint x="670" y="1580" />
              <mxPoint x="670" y="950" />
            </Array>
            <mxPoint x="745.94" y="1502.42" as="sourcePoint" />
          </mxGeometry>
        </mxCell>
        <mxCell id="s3edlqQe-rxAXCFqVmzd-104" style="edgeStyle=orthogonalEdgeStyle;rounded=0;orthogonalLoop=1;jettySize=auto;html=1;exitX=0.5;exitY=1;exitDx=0;exitDy=0;exitPerimeter=0;" edge="1" source="s3edlqQe-rxAXCFqVmzd-143" parent="1">
          <mxGeometry relative="1" as="geometry">
            <mxPoint x="1030" y="950" as="targetPoint" />
            <Array as="points">
              <mxPoint x="1003" y="1540" />
              <mxPoint x="873" y="1540" />
              <mxPoint x="873" y="1580" />
              <mxPoint x="670" y="1580" />
              <mxPoint x="670" y="950" />
            </Array>
            <mxPoint x="1005.94" y="1502.42" as="sourcePoint" />
          </mxGeometry>
        </mxCell>
        <mxCell id="s3edlqQe-rxAXCFqVmzd-106" style="edgeStyle=orthogonalEdgeStyle;rounded=0;orthogonalLoop=1;jettySize=auto;html=1;exitX=0.5;exitY=1;exitDx=0;exitDy=0;entryX=0.5;entryY=0;entryDx=0;entryDy=0;entryPerimeter=0;" edge="1" source="s3edlqQe-rxAXCFqVmzd-101" target="s3edlqQe-rxAXCFqVmzd-143" parent="1">
          <mxGeometry relative="1" as="geometry">
            <mxPoint x="942.9400000000003" y="1432.42" as="targetPoint" />
          </mxGeometry>
        </mxCell>
        <mxCell id="s3edlqQe-rxAXCFqVmzd-108" value="내보내기" style="text;html=1;align=center;verticalAlign=middle;resizable=0;points=[];autosize=1;strokeColor=none;fillColor=none;" vertex="1" parent="1">
          <mxGeometry x="837.94" y="1518" width="70" height="30" as="geometry" />
        </mxCell>
        <mxCell id="s3edlqQe-rxAXCFqVmzd-109" style="edgeStyle=orthogonalEdgeStyle;rounded=0;orthogonalLoop=1;jettySize=auto;html=1;exitX=0.5;exitY=1;exitDx=0;exitDy=0;exitPerimeter=0;entryX=0.5;entryY=0;entryDx=0;entryDy=0;entryPerimeter=0;" edge="1" parent="1" source="NPe-8h-_CcpF1HoH4NOW-224" target="NPe-8h-_CcpF1HoH4NOW-228">
          <mxGeometry relative="1" as="geometry">
            <Array as="points">
              <mxPoint x="-290" y="1670" />
              <mxPoint x="210" y="1670" />
            </Array>
          </mxGeometry>
        </mxCell>
        <mxCell id="s3edlqQe-rxAXCFqVmzd-110" style="edgeStyle=orthogonalEdgeStyle;rounded=0;orthogonalLoop=1;jettySize=auto;html=1;exitX=0.5;exitY=1;exitDx=0;exitDy=0;exitPerimeter=0;entryX=0.5;entryY=0;entryDx=0;entryDy=0;entryPerimeter=0;" edge="1" parent="1" source="NPe-8h-_CcpF1HoH4NOW-227" target="NPe-8h-_CcpF1HoH4NOW-228">
          <mxGeometry relative="1" as="geometry">
            <Array as="points">
              <mxPoint x="1080" y="1670" />
              <mxPoint x="210" y="1670" />
            </Array>
          </mxGeometry>
        </mxCell>
        <mxCell id="s3edlqQe-rxAXCFqVmzd-111" style="edgeStyle=orthogonalEdgeStyle;rounded=0;orthogonalLoop=1;jettySize=auto;html=1;exitX=0.5;exitY=1;exitDx=0;exitDy=0;exitPerimeter=0;entryX=0.5;entryY=0;entryDx=0;entryDy=0;entryPerimeter=0;" edge="1" parent="1" source="NPe-8h-_CcpF1HoH4NOW-223" target="NPe-8h-_CcpF1HoH4NOW-228">
          <mxGeometry relative="1" as="geometry" />
        </mxCell>
        <mxCell id="s3edlqQe-rxAXCFqVmzd-116" style="edgeStyle=orthogonalEdgeStyle;rounded=0;orthogonalLoop=1;jettySize=auto;html=1;entryX=0;entryY=0.5;entryDx=0;entryDy=0;entryPerimeter=0;" edge="1" parent="1" source="s3edlqQe-rxAXCFqVmzd-9" target="NPe-8h-_CcpF1HoH4NOW-226">
          <mxGeometry relative="1" as="geometry">
            <mxPoint x="-900" y="950" as="targetPoint" />
            <Array as="points">
              <mxPoint x="-1210" y="1230" />
              <mxPoint x="-1210" y="950" />
            </Array>
          </mxGeometry>
        </mxCell>
        <mxCell id="s3edlqQe-rxAXCFqVmzd-117" value="NO" style="edgeLabel;html=1;align=center;verticalAlign=middle;resizable=0;points=[];" vertex="1" connectable="0" parent="s3edlqQe-rxAXCFqVmzd-116">
          <mxGeometry x="-0.8676" relative="1" as="geometry">
            <mxPoint as="offset" />
          </mxGeometry>
        </mxCell>
        <mxCell id="s3edlqQe-rxAXCFqVmzd-118" style="edgeStyle=orthogonalEdgeStyle;rounded=0;orthogonalLoop=1;jettySize=auto;html=1;exitX=0;exitY=0.5;exitDx=0;exitDy=0;exitPerimeter=0;entryX=0;entryY=0.5;entryDx=0;entryDy=0;entryPerimeter=0;" edge="1" parent="1" source="s3edlqQe-rxAXCFqVmzd-100" target="NPe-8h-_CcpF1HoH4NOW-227">
          <mxGeometry relative="1" as="geometry">
            <mxPoint x="979.9699999999998" y="950" as="targetPoint" />
            <Array as="points">
              <mxPoint x="670" y="1220" />
              <mxPoint x="670" y="950" />
            </Array>
          </mxGeometry>
        </mxCell>
        <mxCell id="s3edlqQe-rxAXCFqVmzd-119" value="NO" style="edgeLabel;html=1;align=center;verticalAlign=middle;resizable=0;points=[];" vertex="1" connectable="0" parent="s3edlqQe-rxAXCFqVmzd-118">
          <mxGeometry x="-0.8562" relative="1" as="geometry">
            <mxPoint as="offset" />
          </mxGeometry>
        </mxCell>
        <mxCell id="s3edlqQe-rxAXCFqVmzd-120" style="edgeStyle=orthogonalEdgeStyle;rounded=0;orthogonalLoop=1;jettySize=auto;html=1;entryX=0;entryY=0.5;entryDx=0;entryDy=0;entryPerimeter=0;exitX=0;exitY=0.5;exitDx=0;exitDy=0;exitPerimeter=0;" edge="1" parent="1" source="s3edlqQe-rxAXCFqVmzd-84" target="NPe-8h-_CcpF1HoH4NOW-222">
          <mxGeometry relative="1" as="geometry">
            <mxPoint x="-170.06" y="1230" as="sourcePoint" />
            <mxPoint x="89.94" y="950" as="targetPoint" />
            <Array as="points">
              <mxPoint x="-220" y="1230" />
              <mxPoint x="-220" y="950" />
            </Array>
          </mxGeometry>
        </mxCell>
        <mxCell id="s3edlqQe-rxAXCFqVmzd-123" value="NO" style="edgeLabel;html=1;align=center;verticalAlign=middle;resizable=0;points=[];" vertex="1" connectable="0" parent="s3edlqQe-rxAXCFqVmzd-120">
          <mxGeometry x="-0.8733" relative="1" as="geometry">
            <mxPoint as="offset" />
          </mxGeometry>
        </mxCell>
        <mxCell id="s3edlqQe-rxAXCFqVmzd-121" style="edgeStyle=orthogonalEdgeStyle;rounded=0;orthogonalLoop=1;jettySize=auto;html=1;entryX=0;entryY=0.5;entryDx=0;entryDy=0;entryPerimeter=0;" edge="1" parent="1" source="s3edlqQe-rxAXCFqVmzd-54" target="NPe-8h-_CcpF1HoH4NOW-224">
          <mxGeometry relative="1" as="geometry">
            <Array as="points">
              <mxPoint x="-710" y="1230" />
              <mxPoint x="-710" y="950" />
            </Array>
          </mxGeometry>
        </mxCell>
        <mxCell id="s3edlqQe-rxAXCFqVmzd-122" value="NO" style="edgeLabel;html=1;align=center;verticalAlign=middle;resizable=0;points=[];" vertex="1" connectable="0" parent="s3edlqQe-rxAXCFqVmzd-121">
          <mxGeometry x="-0.8624" relative="1" as="geometry">
            <mxPoint as="offset" />
          </mxGeometry>
        </mxCell>
        <mxCell id="s3edlqQe-rxAXCFqVmzd-125" value="제조사 DB" style="strokeWidth=2;html=1;shape=mxgraph.flowchart.database;whiteSpace=wrap;" vertex="1" parent="1">
          <mxGeometry x="-910" y="1432.4200000000003" width="100" height="70" as="geometry" />
        </mxCell>
        <mxCell id="s3edlqQe-rxAXCFqVmzd-126" style="edgeStyle=orthogonalEdgeStyle;rounded=0;orthogonalLoop=1;jettySize=auto;html=1;exitX=0.5;exitY=1;exitDx=0;exitDy=0;exitPerimeter=0;entryX=0;entryY=0.5;entryDx=0;entryDy=0;entryPerimeter=0;" edge="1" parent="1" source="s3edlqQe-rxAXCFqVmzd-14" target="NPe-8h-_CcpF1HoH4NOW-226">
          <mxGeometry relative="1" as="geometry">
            <Array as="points">
              <mxPoint x="-990" y="1580" />
              <mxPoint x="-1210" y="1580" />
              <mxPoint x="-1210" y="950" />
            </Array>
          </mxGeometry>
        </mxCell>
        <mxCell id="s3edlqQe-rxAXCFqVmzd-127" value="상품 DB" style="strokeWidth=2;html=1;shape=mxgraph.flowchart.database;whiteSpace=wrap;" vertex="1" parent="1">
          <mxGeometry x="-670" y="1432.4200000000003" width="100" height="70" as="geometry" />
        </mxCell>
        <mxCell id="s3edlqQe-rxAXCFqVmzd-133" style="edgeStyle=orthogonalEdgeStyle;rounded=0;orthogonalLoop=1;jettySize=auto;html=1;entryX=0;entryY=0.5;entryDx=0;entryDy=0;entryPerimeter=0;" edge="1" parent="1" source="s3edlqQe-rxAXCFqVmzd-128" target="NPe-8h-_CcpF1HoH4NOW-224">
          <mxGeometry relative="1" as="geometry">
            <mxPoint x="-380" y="960" as="targetPoint" />
            <Array as="points">
              <mxPoint x="-490" y="1580" />
              <mxPoint x="-710" y="1580" />
              <mxPoint x="-710" y="950" />
            </Array>
          </mxGeometry>
        </mxCell>
        <mxCell id="s3edlqQe-rxAXCFqVmzd-128" value="자료 저장 DB" style="strokeWidth=2;html=1;shape=mxgraph.flowchart.database;whiteSpace=wrap;" vertex="1" parent="1">
          <mxGeometry x="-540" y="1432.4200000000003" width="100" height="70" as="geometry" />
        </mxCell>
        <mxCell id="s3edlqQe-rxAXCFqVmzd-130" value="제조사 DB" style="strokeWidth=2;html=1;shape=mxgraph.flowchart.database;whiteSpace=wrap;" vertex="1" parent="1">
          <mxGeometry x="-410" y="1432.4200000000003" width="100" height="70" as="geometry" />
        </mxCell>
        <mxCell id="s3edlqQe-rxAXCFqVmzd-131" style="edgeStyle=orthogonalEdgeStyle;rounded=0;orthogonalLoop=1;jettySize=auto;html=1;exitX=0.5;exitY=1;exitDx=0;exitDy=0;entryX=0.5;entryY=0;entryDx=0;entryDy=0;entryPerimeter=0;" edge="1" parent="1" source="s3edlqQe-rxAXCFqVmzd-55" target="s3edlqQe-rxAXCFqVmzd-128">
          <mxGeometry relative="1" as="geometry" />
        </mxCell>
        <mxCell id="s3edlqQe-rxAXCFqVmzd-132" style="edgeStyle=orthogonalEdgeStyle;rounded=0;orthogonalLoop=1;jettySize=auto;html=1;entryX=0.5;entryY=0;entryDx=0;entryDy=0;entryPerimeter=0;" edge="1" parent="1" source="s3edlqQe-rxAXCFqVmzd-10" target="s3edlqQe-rxAXCFqVmzd-14">
          <mxGeometry relative="1" as="geometry" />
        </mxCell>
        <mxCell id="s3edlqQe-rxAXCFqVmzd-134" value="조회" style="edgeLabel;html=1;align=center;verticalAlign=middle;resizable=0;points=[];" vertex="1" connectable="0" parent="1">
          <mxGeometry x="-80.06000000000019" y="1382.1999999999998" as="geometry">
            <mxPoint x="-491" y="-9" as="offset" />
          </mxGeometry>
        </mxCell>
        <mxCell id="s3edlqQe-rxAXCFqVmzd-135" value="상품 DB" style="strokeWidth=2;html=1;shape=mxgraph.flowchart.database;whiteSpace=wrap;" vertex="1" parent="1">
          <mxGeometry x="-189" y="1432.4200000000003" width="100" height="70" as="geometry" />
        </mxCell>
        <mxCell id="s3edlqQe-rxAXCFqVmzd-136" value="자료 저장 DB" style="strokeWidth=2;html=1;shape=mxgraph.flowchart.database;whiteSpace=wrap;" vertex="1" parent="1">
          <mxGeometry x="-59" y="1432.4200000000003" width="100" height="70" as="geometry" />
        </mxCell>
        <mxCell id="s3edlqQe-rxAXCFqVmzd-137" value="제조사 DB" style="strokeWidth=2;html=1;shape=mxgraph.flowchart.database;whiteSpace=wrap;" vertex="1" parent="1">
          <mxGeometry x="71" y="1432.4200000000003" width="100" height="70" as="geometry" />
        </mxCell>
        <mxCell id="s3edlqQe-rxAXCFqVmzd-140" style="edgeStyle=orthogonalEdgeStyle;rounded=0;orthogonalLoop=1;jettySize=auto;html=1;entryX=0;entryY=0.5;entryDx=0;entryDy=0;entryPerimeter=0;" edge="1" parent="1" source="s3edlqQe-rxAXCFqVmzd-136" target="NPe-8h-_CcpF1HoH4NOW-222">
          <mxGeometry relative="1" as="geometry">
            <Array as="points">
              <mxPoint x="-9" y="1580" />
              <mxPoint x="-220" y="1580" />
              <mxPoint x="-220" y="950" />
            </Array>
          </mxGeometry>
        </mxCell>
        <mxCell id="s3edlqQe-rxAXCFqVmzd-141" value="상품 DB" style="strokeWidth=2;html=1;shape=mxgraph.flowchart.database;whiteSpace=wrap;" vertex="1" parent="1">
          <mxGeometry x="692.94" y="1432.4200000000003" width="100" height="70" as="geometry" />
        </mxCell>
        <mxCell id="s3edlqQe-rxAXCFqVmzd-142" value="자료 저장 DB" style="strokeWidth=2;html=1;shape=mxgraph.flowchart.database;whiteSpace=wrap;" vertex="1" parent="1">
          <mxGeometry x="822.94" y="1432.4200000000003" width="100" height="70" as="geometry" />
        </mxCell>
        <mxCell id="s3edlqQe-rxAXCFqVmzd-143" value="제조사 DB" style="strokeWidth=2;html=1;shape=mxgraph.flowchart.database;whiteSpace=wrap;" vertex="1" parent="1">
          <mxGeometry x="952.94" y="1432.4200000000003" width="100" height="70" as="geometry" />
        </mxCell>
        <mxCell id="s3edlqQe-rxAXCFqVmzd-149" style="edgeStyle=orthogonalEdgeStyle;rounded=0;orthogonalLoop=1;jettySize=auto;html=1;entryX=0;entryY=0.5;entryDx=0;entryDy=0;entryPerimeter=0;" edge="1" parent="1" source="s3edlqQe-rxAXCFqVmzd-142" target="NPe-8h-_CcpF1HoH4NOW-227">
          <mxGeometry relative="1" as="geometry">
            <Array as="points">
              <mxPoint x="873" y="1580" />
              <mxPoint x="670" y="1580" />
              <mxPoint x="670" y="950" />
            </Array>
          </mxGeometry>
        </mxCell>
        <mxCell id="s3edlqQe-rxAXCFqVmzd-150" style="edgeStyle=orthogonalEdgeStyle;rounded=0;orthogonalLoop=1;jettySize=auto;html=1;exitX=0.5;exitY=1;exitDx=0;exitDy=0;entryX=0.5;entryY=0;entryDx=0;entryDy=0;entryPerimeter=0;" edge="1" parent="1" source="nD0UYpK1AcCFRPNusd-Y-150" target="nD0UYpK1AcCFRPNusd-Y-153">
          <mxGeometry relative="1" as="geometry" />
        </mxCell>
        <mxCell id="s3edlqQe-rxAXCFqVmzd-163" style="edgeStyle=orthogonalEdgeStyle;rounded=0;orthogonalLoop=1;jettySize=auto;html=1;exitX=0;exitY=0.5;exitDx=0;exitDy=0;entryX=1.004;entryY=0.17;entryDx=0;entryDy=0;entryPerimeter=0;endArrow=none;endFill=0;startArrow=classic;startFill=1;" edge="1" parent="1" source="nD0UYpK1AcCFRPNusd-Y-164" target="NPe-8h-_CcpF1HoH4NOW-242">
          <mxGeometry relative="1" as="geometry">
            <Array as="points">
              <mxPoint x="390" y="1990" />
            </Array>
          </mxGeometry>
        </mxCell>
        <mxCell id="s3edlqQe-rxAXCFqVmzd-165" value="상품 DB" style="strokeWidth=2;html=1;shape=mxgraph.flowchart.database;whiteSpace=wrap;" vertex="1" parent="1">
          <mxGeometry x="-715" y="300" width="100" height="70" as="geometry" />
        </mxCell>
        <mxCell id="s3edlqQe-rxAXCFqVmzd-170" style="edgeStyle=orthogonalEdgeStyle;rounded=0;orthogonalLoop=1;jettySize=auto;html=1;" edge="1" parent="1" source="s3edlqQe-rxAXCFqVmzd-166">
          <mxGeometry relative="1" as="geometry">
            <mxPoint x="-40" y="-150" as="targetPoint" />
            <Array as="points">
              <mxPoint x="-820" y="430" />
              <mxPoint x="-740" y="430" />
              <mxPoint x="-740" y="540" />
              <mxPoint x="-40" y="540" />
            </Array>
          </mxGeometry>
        </mxCell>
        <mxCell id="s3edlqQe-rxAXCFqVmzd-166" value="자료 저장 DB" style="strokeWidth=2;html=1;shape=mxgraph.flowchart.database;whiteSpace=wrap;" vertex="1" parent="1">
          <mxGeometry x="-870" y="300" width="100" height="70" as="geometry" />
        </mxCell>
        <mxCell id="s3edlqQe-rxAXCFqVmzd-167" style="edgeStyle=orthogonalEdgeStyle;rounded=0;orthogonalLoop=1;jettySize=auto;html=1;exitX=0.5;exitY=1;exitDx=0;exitDy=0;entryX=0.5;entryY=0;entryDx=0;entryDy=0;entryPerimeter=0;" edge="1" target="s3edlqQe-rxAXCFqVmzd-166" parent="1" source="NPe-8h-_CcpF1HoH4NOW-156">
          <mxGeometry relative="1" as="geometry">
            <Array as="points">
              <mxPoint x="-742" y="250" />
              <mxPoint x="-820" y="250" />
            </Array>
            <mxPoint x="-739.94" y="219" as="sourcePoint" />
          </mxGeometry>
        </mxCell>
        <mxCell id="s3edlqQe-rxAXCFqVmzd-171" style="edgeStyle=orthogonalEdgeStyle;rounded=0;orthogonalLoop=1;jettySize=auto;html=1;entryX=0.5;entryY=1;entryDx=0;entryDy=0;entryPerimeter=0;" edge="1" parent="1" source="s3edlqQe-rxAXCFqVmzd-165" target="NPe-8h-_CcpF1HoH4NOW-103">
          <mxGeometry relative="1" as="geometry">
            <Array as="points">
              <mxPoint x="-665" y="430" />
              <mxPoint x="-740" y="430" />
              <mxPoint x="-740" y="540" />
              <mxPoint x="-40" y="540" />
            </Array>
          </mxGeometry>
        </mxCell>
        <mxCell id="s3edlqQe-rxAXCFqVmzd-172" value="또는 Log 파일 저장" style="text;html=1;align=center;verticalAlign=middle;resizable=0;points=[];autosize=1;strokeColor=none;fillColor=none;" vertex="1" parent="1">
          <mxGeometry x="-235" y="372" width="130" height="30" as="geometry" />
        </mxCell>
        <mxCell id="s3edlqQe-rxAXCFqVmzd-173" value="내보내기" style="edgeLabel;html=1;align=center;verticalAlign=middle;resizable=0;points=[];" vertex="1" connectable="0" parent="1">
          <mxGeometry x="-373.9972000679992" y="437.0000000000002" as="geometry">
            <mxPoint x="-326" y="-17" as="offset" />
          </mxGeometry>
        </mxCell>
        <mxCell id="s3edlqQe-rxAXCFqVmzd-177" style="edgeStyle=orthogonalEdgeStyle;rounded=0;orthogonalLoop=1;jettySize=auto;html=1;exitX=0.5;exitY=1;exitDx=0;exitDy=0;exitPerimeter=0;entryX=0.5;entryY=1;entryDx=0;entryDy=0;entryPerimeter=0;" edge="1" parent="1" source="s3edlqQe-rxAXCFqVmzd-174" target="NPe-8h-_CcpF1HoH4NOW-103">
          <mxGeometry relative="1" as="geometry">
            <mxPoint x="-9.940000000000001" y="-145.61999999999998" as="targetPoint" />
            <Array as="points">
              <mxPoint x="630" y="480" />
              <mxPoint x="370" y="480" />
              <mxPoint x="370" y="540" />
              <mxPoint x="-40" y="540" />
            </Array>
          </mxGeometry>
        </mxCell>
        <mxCell id="s3edlqQe-rxAXCFqVmzd-174" value="제조사 DB" style="strokeWidth=2;html=1;shape=mxgraph.flowchart.database;whiteSpace=wrap;" vertex="1" parent="1">
          <mxGeometry x="576.06" y="384.38" width="108" height="70" as="geometry" />
        </mxCell>
        <mxCell id="s3edlqQe-rxAXCFqVmzd-178" value="⇒ 위치 (상품 등록 내 or 외/별도)&lt;br&gt;- + 버튼을 누를 경우 추가 하는 창띄우기&lt;br&gt;- 모달 창 또는 팝업창으로 입력창 띄우기&amp;nbsp;" style="text;html=1;align=left;verticalAlign=middle;resizable=0;points=[];autosize=1;strokeColor=none;fillColor=none;" vertex="1" parent="1">
          <mxGeometry x="775.06" y="-270" width="240" height="60" as="geometry" />
        </mxCell>
        <mxCell id="s3edlqQe-rxAXCFqVmzd-180" value="" style="edgeStyle=orthogonalEdgeStyle;rounded=0;orthogonalLoop=1;jettySize=auto;html=1;" edge="1" parent="1" source="s3edlqQe-rxAXCFqVmzd-179" target="NPe-8h-_CcpF1HoH4NOW-184">
          <mxGeometry relative="1" as="geometry" />
        </mxCell>
        <mxCell id="s3edlqQe-rxAXCFqVmzd-187" value="YES" style="edgeLabel;html=1;align=center;verticalAlign=middle;resizable=0;points=[];" vertex="1" connectable="0" parent="s3edlqQe-rxAXCFqVmzd-180">
          <mxGeometry x="-0.2289" y="-1" relative="1" as="geometry">
            <mxPoint as="offset" />
          </mxGeometry>
        </mxCell>
        <mxCell id="s3edlqQe-rxAXCFqVmzd-185" style="edgeStyle=orthogonalEdgeStyle;rounded=0;orthogonalLoop=1;jettySize=auto;html=1;exitX=1;exitY=0.5;exitDx=0;exitDy=0;exitPerimeter=0;entryX=0.5;entryY=1;entryDx=0;entryDy=0;entryPerimeter=0;" edge="1" parent="1" source="s3edlqQe-rxAXCFqVmzd-179" target="NPe-8h-_CcpF1HoH4NOW-170">
          <mxGeometry relative="1" as="geometry">
            <mxPoint x="725.06" y="-110" as="targetPoint" />
            <mxPoint x="610" y="55.49760765550241" as="sourcePoint" />
            <Array as="points">
              <mxPoint x="720" y="35" />
            </Array>
          </mxGeometry>
        </mxCell>
        <mxCell id="s3edlqQe-rxAXCFqVmzd-189" value="NO" style="edgeLabel;html=1;align=center;verticalAlign=middle;resizable=0;points=[];" vertex="1" connectable="0" parent="s3edlqQe-rxAXCFqVmzd-185">
          <mxGeometry x="-0.5596" y="-1" relative="1" as="geometry">
            <mxPoint as="offset" />
          </mxGeometry>
        </mxCell>
        <mxCell id="s3edlqQe-rxAXCFqVmzd-179" value="수정" style="strokeWidth=2;html=1;shape=mxgraph.flowchart.decision;whiteSpace=wrap;" vertex="1" parent="1">
          <mxGeometry x="490" y="9.879999999999999" width="120" height="51" as="geometry" />
        </mxCell>
        <mxCell id="s3edlqQe-rxAXCFqVmzd-186" style="edgeStyle=orthogonalEdgeStyle;rounded=0;orthogonalLoop=1;jettySize=auto;html=1;exitX=0;exitY=0.5;exitDx=0;exitDy=0;exitPerimeter=0;entryX=0.5;entryY=1;entryDx=0;entryDy=0;entryPerimeter=0;" edge="1" parent="1" source="s3edlqQe-rxAXCFqVmzd-181" target="NPe-8h-_CcpF1HoH4NOW-170">
          <mxGeometry relative="1" as="geometry">
            <mxPoint x="725.06" y="-110" as="targetPoint" />
            <mxPoint x="840" y="-4.595238095238187" as="sourcePoint" />
            <Array as="points">
              <mxPoint x="720" y="-40" />
            </Array>
          </mxGeometry>
        </mxCell>
        <mxCell id="s3edlqQe-rxAXCFqVmzd-190" value="NO" style="edgeLabel;html=1;align=center;verticalAlign=middle;resizable=0;points=[];" vertex="1" connectable="0" parent="s3edlqQe-rxAXCFqVmzd-186">
          <mxGeometry x="-0.4877" relative="1" as="geometry">
            <mxPoint as="offset" />
          </mxGeometry>
        </mxCell>
        <mxCell id="s3edlqQe-rxAXCFqVmzd-181" value="추가" style="strokeWidth=2;html=1;shape=mxgraph.flowchart.decision;whiteSpace=wrap;" vertex="1" parent="1">
          <mxGeometry x="840" y="-65.37" width="120" height="50.75" as="geometry" />
        </mxCell>
        <mxCell id="s3edlqQe-rxAXCFqVmzd-197" value="" style="edgeStyle=orthogonalEdgeStyle;rounded=0;orthogonalLoop=1;jettySize=auto;html=1;" edge="1" parent="1" source="s3edlqQe-rxAXCFqVmzd-191" target="s3edlqQe-rxAXCFqVmzd-196">
          <mxGeometry relative="1" as="geometry" />
        </mxCell>
        <mxCell id="s3edlqQe-rxAXCFqVmzd-200" value="YES" style="edgeLabel;html=1;align=center;verticalAlign=middle;resizable=0;points=[];" vertex="1" connectable="0" parent="s3edlqQe-rxAXCFqVmzd-197">
          <mxGeometry x="0.0356" relative="1" as="geometry">
            <mxPoint as="offset" />
          </mxGeometry>
        </mxCell>
        <mxCell id="s3edlqQe-rxAXCFqVmzd-201" value="" style="edgeStyle=orthogonalEdgeStyle;rounded=0;orthogonalLoop=1;jettySize=auto;html=1;entryX=0.5;entryY=1;entryDx=0;entryDy=0;entryPerimeter=0;" edge="1" parent="1" source="s3edlqQe-rxAXCFqVmzd-191" target="NPe-8h-_CcpF1HoH4NOW-170">
          <mxGeometry relative="1" as="geometry">
            <Array as="points">
              <mxPoint x="720" y="-40" />
            </Array>
          </mxGeometry>
        </mxCell>
        <mxCell id="s3edlqQe-rxAXCFqVmzd-202" value="NO" style="edgeLabel;html=1;align=center;verticalAlign=middle;resizable=0;points=[];" vertex="1" connectable="0" parent="s3edlqQe-rxAXCFqVmzd-201">
          <mxGeometry x="-0.8287" relative="1" as="geometry">
            <mxPoint as="offset" />
          </mxGeometry>
        </mxCell>
        <mxCell id="s3edlqQe-rxAXCFqVmzd-191" value="삭제" style="strokeWidth=2;html=1;shape=mxgraph.flowchart.decision;whiteSpace=wrap;" vertex="1" parent="1">
          <mxGeometry x="290" y="-65.25" width="120" height="50.75" as="geometry" />
        </mxCell>
        <mxCell id="s3edlqQe-rxAXCFqVmzd-196" value="삭제&lt;br&gt;대/중/소 분류에서&lt;br&gt;필요없는 명칭" style="shape=parallelogram;html=1;strokeWidth=2;perimeter=parallelogramPerimeter;whiteSpace=wrap;rounded=1;arcSize=12;size=0.23;strokeColor=#009900;" vertex="1" parent="1">
          <mxGeometry x="270" y="40" width="160" height="60" as="geometry" />
        </mxCell>
        <mxCell id="s3edlqQe-rxAXCFqVmzd-198" style="edgeStyle=orthogonalEdgeStyle;rounded=0;orthogonalLoop=1;jettySize=auto;html=1;entryX=0;entryY=0.5;entryDx=0;entryDy=0;entryPerimeter=0;" edge="1" parent="1" source="s3edlqQe-rxAXCFqVmzd-196" target="NPe-8h-_CcpF1HoH4NOW-195">
          <mxGeometry relative="1" as="geometry">
            <Array as="points">
              <mxPoint x="350" y="275" />
            </Array>
          </mxGeometry>
        </mxCell>
        <mxCell id="s3edlqQe-rxAXCFqVmzd-199" value="삭제" style="text;html=1;align=center;verticalAlign=middle;resizable=0;points=[];autosize=1;strokeColor=none;fillColor=none;" vertex="1" parent="1">
          <mxGeometry x="345" y="248" width="50" height="30" as="geometry" />
        </mxCell>
        <mxCell id="s3edlqQe-rxAXCFqVmzd-203" value="카테고리 수정" style="rounded=1;whiteSpace=wrap;html=1;absoluteArcSize=1;arcSize=14;strokeWidth=2;align=center;strokeColor=#009900;" vertex="1" parent="1">
          <mxGeometry x="495" y="188" width="110" height="60" as="geometry" />
        </mxCell>
        <mxCell id="s3edlqQe-rxAXCFqVmzd-204" value="카테고리 삭제" style="rounded=1;whiteSpace=wrap;html=1;absoluteArcSize=1;arcSize=14;strokeWidth=2;align=center;strokeColor=#009900;" vertex="1" parent="1">
          <mxGeometry x="295" y="140" width="110" height="60" as="geometry" />
        </mxCell>
        <mxCell id="s3edlqQe-rxAXCFqVmzd-206" style="edgeStyle=orthogonalEdgeStyle;rounded=0;orthogonalLoop=1;jettySize=auto;html=1;entryX=0.5;entryY=0;entryDx=0;entryDy=0;entryPerimeter=0;" edge="1" parent="1" source="NPe-8h-_CcpF1HoH4NOW-170" target="s3edlqQe-rxAXCFqVmzd-179">
          <mxGeometry relative="1" as="geometry">
            <Array as="points">
              <mxPoint x="460" y="-140" />
              <mxPoint x="460" y="-90" />
              <mxPoint x="550" y="-90" />
            </Array>
          </mxGeometry>
        </mxCell>
        <mxCell id="s3edlqQe-rxAXCFqVmzd-207" style="edgeStyle=orthogonalEdgeStyle;rounded=0;orthogonalLoop=1;jettySize=auto;html=1;entryX=0.5;entryY=0;entryDx=0;entryDy=0;entryPerimeter=0;" edge="1" parent="1" source="NPe-8h-_CcpF1HoH4NOW-170" target="s3edlqQe-rxAXCFqVmzd-181">
          <mxGeometry relative="1" as="geometry" />
        </mxCell>
        <mxCell id="s3edlqQe-rxAXCFqVmzd-209" style="edgeStyle=orthogonalEdgeStyle;rounded=0;orthogonalLoop=1;jettySize=auto;html=1;entryX=1;entryY=0.5;entryDx=0;entryDy=0;entryPerimeter=0;" edge="1" parent="1" source="NPe-8h-_CcpF1HoH4NOW-173" target="NPe-8h-_CcpF1HoH4NOW-195">
          <mxGeometry relative="1" as="geometry">
            <Array as="points">
              <mxPoint x="900" y="275" />
            </Array>
          </mxGeometry>
        </mxCell>
      </root>
    </mxGraphModel>
  </diagram>
</mxfile>
